<svg width="23" height="23" viewBox="0 0 23 23" fill="none" xmlns="http://www.w3.org/2000/svg">
<path d="M17.3282 0.0625C17.7344 0.0625 18.1094 0.179688 18.4375 0.375C18.6172 0.492188 22.961 3.42187 22.9766 8.71094C22.9766 11.167 22.0375 13.1763 21.0349 14.6202C20.6068 15.5434 20.0514 16.423 19.3707 17.2302L19.3691 17.2321C18.9106 17.7725 18.4111 18.2808 17.886 18.7414C17.3883 19.2137 16.8712 19.6405 16.342 20.0127C13.8374 21.7975 10.8268 22.7188 7.76562 22.7188H1.84375C0.98259 22.7188 0.28125 22.0175 0.28125 21.1563V14.125C0.28125 13.2639 0.982591 12.5625 1.84375 12.5625H5.32812C6.15131 12.5625 6.9077 12.125 7.31456 11.4159L7.31679 11.412L11.4687 4.27105C11.8212 3.63508 12.3667 3.18021 12.9914 2.93329C13.2295 1.42326 14.6346 0.316536 16.1129 0.454262C16.4546 0.207717 16.8743 0.0625 17.3282 0.0625ZM16.4937 2.19003C15.6402 1.67686 14.4477 2.36969 14.5217 3.47933L14.5259 3.54268C14.7567 3.58601 14.986 3.66759 15.2031 3.78904C15.8271 4.13296 16.2224 4.73024 16.3327 5.38075C16.3327 5.38072 16.3328 5.38078 16.3327 5.38075L16.8444 6.08968C17.6821 7.25023 18.1172 8.52525 18.1172 9.87504C18.1172 10.0377 18.1091 10.1909 18.1018 10.3278L18.0999 10.3642L18.0991 10.3748C17.9565 12.157 16.453 13.5079 14.6797 13.5079C13.643 13.5079 12.8047 12.6623 12.8047 11.625C12.8047 11.3055 12.8851 10.994 13.0451 10.7118C13.3301 10.1958 13.6222 9.70277 13.9085 9.21959C14.4959 8.22807 15.0586 7.27826 15.4848 6.25838L15.4898 6.24635L15.5242 6.16366C15.7132 5.52466 15.439 4.81111 14.826 4.47324L14.8217 4.47089C14.5181 4.30105 14.187 4.25462 13.8987 4.30748L13.6709 4.34925C13.3218 4.45755 13.0206 4.69162 12.833 5.03279L12.8285 5.04094L8.6686 12.1957C7.98141 13.3916 6.70724 14.125 5.32812 14.125H1.84375V21.1563H7.76562C10.5161 21.1563 13.2078 20.3281 15.4371 18.7389L15.4413 18.7359C15.9072 18.4083 16.3699 18.0269 16.821 17.5979L16.8328 17.5868L16.8449 17.5762C17.3151 17.1647 17.7643 16.7083 18.177 16.222C21.803 11.9208 21.2821 5.39344 16.4937 2.19003ZM15.1838 10.1358C14.9113 10.5963 14.6469 11.0433 14.4104 11.4715L14.4077 11.4765L14.4049 11.4814C14.3795 11.5258 14.3672 11.5717 14.3672 11.625C14.3672 11.8066 14.5132 11.9454 14.6797 11.9454C15.6531 11.9454 16.4599 11.2075 16.5408 10.2599L16.5409 10.258C16.5486 10.1109 16.5547 9.99532 16.5547 9.87504C16.5547 9.32363 16.4578 8.78286 16.2584 8.25396C15.9166 8.897 15.5432 9.52825 15.1838 10.1358Z" fill="#212121"/>
</svg>
