<svg width="23" height="23" viewBox="0 0 23 23" fill="none" xmlns="http://www.w3.org/2000/svg">
<path d="M4.79059 2.26333C4.83393 2.32135 4.89413 2.36456 4.96297 2.38707C5.0318 2.40958 5.10591 2.41028 5.17515 2.38908C5.2444 2.36788 5.30541 2.32581 5.34984 2.26862C5.39428 2.21143 5.41997 2.14192 5.4234 2.06958L5.53121 0.453171C5.53565 0.395833 5.52617 0.338272 5.50357 0.285385C5.48098 0.232499 5.44595 0.185852 5.40146 0.149414C5.35697 0.112976 5.30433 0.0878251 5.24803 0.0761012C5.19173 0.0643773 5.13342 0.0664274 5.07809 0.0820773L4.01559 0.412546C3.96062 0.430619 3.91072 0.461481 3.87 0.502595C3.82929 0.543708 3.79891 0.593898 3.78137 0.649039C3.76383 0.70418 3.75962 0.762697 3.7691 0.81978C3.77858 0.876862 3.80147 0.930879 3.8359 0.97739L4.79059 2.26333Z" fill="#212121"/>
<path d="M2.94683 3.5305L1.49371 2.92112C1.44112 2.89974 1.39459 2.86575 1.35824 2.82215C1.32188 2.77855 1.29681 2.72668 1.28523 2.6711C1.27365 2.61552 1.27592 2.55795 1.29184 2.50346C1.30776 2.44897 1.33684 2.39923 1.37652 2.35862L2.13433 1.55394C2.1732 1.51266 2.22149 1.48141 2.27507 1.46288C2.32866 1.44435 2.38593 1.43908 2.442 1.44753C2.49806 1.45598 2.55124 1.47789 2.59699 1.51139C2.64273 1.54489 2.67967 1.58897 2.70465 1.63987L3.39996 3.05394C3.43003 3.11826 3.44 3.19016 3.42859 3.26024C3.41717 3.33032 3.38489 3.39533 3.33597 3.44679C3.28704 3.49825 3.22374 3.53376 3.15432 3.5487C3.0849 3.56363 3.01259 3.55729 2.94683 3.5305Z" fill="#212121"/>
<path d="M21.7922 6.76256C22.2986 7.19963 22.6159 7.81598 22.6773 8.48209C22.6804 8.51063 22.682 8.53932 22.682 8.56803V15.9469C22.7422 17.1093 22.4924 18.2669 21.9581 19.301C21.4238 20.3351 20.6243 21.2086 19.6414 21.8321C18.6686 22.4132 17.555 22.7162 16.4219 22.7079C15.6611 22.7068 14.9059 22.5785 14.1875 22.3282C13.501 22.5811 12.7753 22.711 12.0437 22.7118C11.0243 22.7212 10.017 22.4895 9.10407 22.0357C8.19116 21.5818 7.39845 20.9186 6.7906 20.1001L4.07888 15.6727L2.12576 12.3751C1.85354 11.849 1.77049 11.2452 1.89054 10.6652C2.01059 10.0851 2.32645 9.56395 2.78513 9.18912C2.96087 9.06967 3.14797 8.96787 3.34373 8.88521C3.16971 8.38834 3.15926 7.84882 3.31389 7.34558C3.46851 6.84234 3.78011 6.40178 4.2031 6.08834C4.37439 5.98303 4.55481 5.89335 4.74216 5.82037C4.71745 5.61813 4.71929 5.41353 4.74763 5.21178C4.8001 4.85012 4.9325 4.5047 5.13521 4.20063C5.33792 3.89656 5.60585 3.64149 5.91951 3.45396C6.3511 3.21264 6.84444 3.10441 7.33741 3.14292C7.83039 3.18143 8.30094 3.36495 8.68982 3.67037C8.82141 3.53074 8.97089 3.40911 9.13435 3.30865C9.63826 3.0067 10.2405 2.91442 10.8117 3.05162C11.1484 2.9616 11.4992 2.93642 11.8453 2.9774C12.2894 3.02534 12.7086 3.20675 13.0476 3.49771C13.1815 3.35512 13.3336 3.23087 13.5 3.12818C14.035 2.81301 14.673 2.72261 15.2745 2.87679C15.876 3.03097 16.3919 3.41716 16.7094 3.95084L18.3281 6.84146C18.5408 6.62266 18.7946 6.44794 19.0749 6.32729C19.3552 6.20664 19.6566 6.14244 19.9617 6.13834C20.6296 6.10175 21.2858 6.3255 21.7922 6.76256ZM12.5359 9.70709H12.5312L12.5023 9.7274L12.5226 9.7149L12.5359 9.70709ZM7.20589 4.70252C7.04274 4.6909 6.87933 4.72125 6.73123 4.79068V4.78756C6.61449 4.85387 6.51437 4.94586 6.43844 5.05658C6.36251 5.1673 6.31275 5.29384 6.29295 5.42662C6.27256 5.57761 6.30484 5.73102 6.38435 5.86099L7.54373 7.62271C7.56774 7.28613 7.66791 6.95941 7.83668 6.66721C8.00545 6.37502 8.2384 6.12498 8.51795 5.93599C8.55583 5.91289 8.59262 5.89608 8.62945 5.87924C8.6549 5.86761 8.68037 5.85597 8.70623 5.84224C8.50413 5.81626 8.32035 5.71188 8.19451 5.55162L7.71091 4.92662C7.6937 4.90438 7.67779 4.88117 7.66326 4.85709C7.5265 4.76736 7.36904 4.71415 7.20589 4.70252ZM5.41873 7.24146C5.27516 7.28275 5.13833 7.34458 5.01248 7.42506L5.01482 7.42193C4.89789 7.56322 4.82111 7.73336 4.79252 7.91452C4.76393 8.09567 4.78459 8.28119 4.85232 8.45162C4.95161 8.64187 5.02517 8.77991 5.08155 8.88571L5.0867 8.89537L6.18435 10.5454C6.27086 10.0913 6.47997 9.66956 6.78904 9.32584L5.41873 7.24146ZM5.41482 14.8704L8.09295 19.2454L8.09529 19.2422C8.56344 19.8592 9.17324 20.3543 9.87314 20.6858C10.573 21.0174 11.3425 21.1755 12.1164 21.1469C11.7459 20.8334 11.4163 20.4746 11.1351 20.079L8.39607 15.6079L7.23904 13.6547C7.07001 13.7485 6.87201 13.7755 6.68403 13.7305C6.49606 13.6856 6.33173 13.5719 6.22341 13.4118L4.12498 10.2688C3.9562 10.3104 3.79704 10.3841 3.65623 10.486C3.5332 10.6353 3.45069 10.8138 3.41662 11.0043C3.38255 11.1947 3.39807 11.3908 3.4617 11.5735L5.41482 14.8704ZM15.3911 21.0676C16.567 21.303 17.7883 21.1018 18.8265 20.5016L18.8289 20.4985C19.569 20.0224 20.1707 19.3599 20.5735 18.5775C20.9762 17.7951 21.1659 16.9204 21.1234 16.0415V8.61724C21.1109 8.48304 21.0717 8.35267 21.0082 8.23375C20.9448 8.11483 20.8583 8.00973 20.7538 7.92457C20.6493 7.83942 20.5289 7.77592 20.3996 7.73778C20.2703 7.69964 20.1347 7.68761 20.0008 7.7024C19.8001 7.70634 19.608 7.78403 19.461 7.92064C19.314 8.05726 19.2225 8.24322 19.2039 8.44303C19.507 8.98756 19.7586 9.436 19.8828 9.65084C19.9762 9.82939 19.997 10.0371 19.9409 10.2306C19.8847 10.4242 19.756 10.5885 19.5815 10.6893C19.4071 10.7902 19.2004 10.8197 19.0047 10.7718C18.809 10.7238 18.6393 10.6021 18.5312 10.4321C18.3945 10.1962 18.1219 9.70943 17.7976 9.1274L17.7422 9.02818V8.98053C17.7387 8.97533 17.7346 8.97074 17.7305 8.96616C17.7254 8.96042 17.7203 8.95466 17.7164 8.94771L15.3726 4.76099C15.3121 4.63338 15.2159 4.52601 15.0956 4.45184C14.9754 4.37768 14.8363 4.33989 14.695 4.34302C14.5538 4.34616 14.4165 4.3901 14.2997 4.46953C14.1829 4.54896 14.0915 4.6605 14.0367 4.79068C14.263 5.15578 14.5412 5.60193 14.8364 6.07536L14.9234 6.2149C15.6664 7.411 16.4711 8.69771 16.7344 9.10553C16.847 9.27947 16.8859 9.49103 16.8425 9.69365C16.7991 9.89628 16.677 10.0734 16.5031 10.186C16.3292 10.2986 16.1176 10.3375 15.915 10.2941C15.7123 10.2508 15.5352 10.1287 15.4226 9.95474C15.15 9.53209 14.3367 8.23053 13.5969 7.04381C13.3602 6.66419 13.1306 6.29506 12.9274 5.96841L12.6101 5.45865L12.6 5.44224L12.5773 5.40553C12.5741 5.40194 12.5704 5.39886 12.5666 5.39573C12.5622 5.39204 12.5577 5.38831 12.5539 5.38365L12.0656 4.7485C12.0492 4.72584 12.0328 4.7024 12.0187 4.67896C11.9165 4.58539 11.7839 4.53185 11.6453 4.52818C11.4486 4.49513 11.2465 4.52237 11.0656 4.60631C10.9469 4.674 10.8451 4.76774 10.7678 4.88046C10.6905 4.99318 10.6398 5.12195 10.6195 5.25709C10.5997 5.4017 10.6271 5.54885 10.6976 5.67662C11.0604 5.82045 11.3954 6.02639 11.6875 6.28521C11.9284 6.53128 12.1407 6.80385 12.3203 7.09771C12.5383 7.4274 12.7844 7.83053 13.0281 8.23678C13.2101 8.54068 13.3906 8.84693 13.5586 9.13209L13.6221 9.23912C13.8875 9.68656 14.1125 10.0659 14.2617 10.2969C14.3747 10.4709 14.414 10.6826 14.3709 10.8855C14.3279 11.0884 14.206 11.2659 14.032 11.379C13.8581 11.492 13.6463 11.5313 13.4434 11.4882C13.2405 11.4451 13.063 11.3232 12.95 11.1493C12.7715 10.8726 12.5005 10.4133 12.2096 9.92029L12.1008 9.73615L12.1 9.73489C11.9648 9.50607 11.8263 9.27182 11.6898 9.04459C11.4492 8.64224 11.2164 8.26334 11.0179 7.96256C10.9179 7.80396 10.8281 7.68131 10.7617 7.59303C10.7315 7.54886 10.7043 7.51546 10.6841 7.49052L10.6836 7.4899C10.6745 7.47875 10.6648 7.46806 10.6547 7.45787C10.4827 7.30275 10.2828 7.18184 10.0656 7.10162C10.0077 7.09322 9.95083 7.07855 9.89607 7.05787C9.69432 7.08194 9.50163 7.15547 9.33513 7.27193C9.21502 7.41549 9.13575 7.58873 9.10565 7.77348C9.07554 7.95822 9.09571 8.14767 9.16404 8.32193L9.4117 8.78209C9.74083 8.9226 10.0469 9.11197 10.3195 9.34381C10.5294 9.54906 10.713 9.77945 10.8664 10.0297C11.0351 10.2876 11.2148 10.5915 11.389 10.8954C11.4937 11.0774 11.5969 11.2602 11.6961 11.4368L11.7015 11.4461L11.7331 11.5021C11.9618 11.9069 12.1662 12.2689 12.3336 12.5274C12.3917 12.6135 12.4321 12.7103 12.4524 12.8122C12.4726 12.9141 12.4723 13.0191 12.4516 13.1209C12.4308 13.2226 12.3899 13.3193 12.3313 13.4051C12.2727 13.4909 12.1976 13.5641 12.1104 13.6206C12.0232 13.677 11.9255 13.7155 11.8233 13.7337C11.721 13.7519 11.6161 13.7496 11.5147 13.7268C11.4134 13.704 11.3176 13.6612 11.2329 13.601C11.1483 13.5407 11.0765 13.4642 11.0219 13.3758C10.8165 13.0596 10.5666 12.6161 10.3238 12.1851C10.2253 12.0101 10.1265 11.8352 10.0312 11.6688C9.86091 11.3712 9.69998 11.0993 9.55701 10.8813C9.48279 10.7712 9.42029 10.6797 9.37029 10.6149C9.3422 10.5773 9.31167 10.5415 9.27888 10.5079C9.10499 10.364 8.90932 10.2488 8.6992 10.1665C8.64192 10.157 8.58586 10.1413 8.53201 10.1196C8.32456 10.1573 8.12798 10.2403 7.95623 10.3626C7.83173 10.5148 7.74839 10.6965 7.71419 10.8902C7.67999 11.0839 7.69608 11.2831 7.76092 11.4688L9.73279 14.8024L12.4383 19.2227C13.1654 20.1763 14.2152 20.8322 15.3911 21.0676Z" fill="#212121"/>
<path d="M0.897623 4.02813L2.24997 4.93594C2.31098 4.97818 2.35773 5.03796 2.38403 5.10736C2.41032 5.17676 2.41493 5.2525 2.39722 5.32458C2.37952 5.39665 2.34036 5.46164 2.2849 5.51097C2.22945 5.56029 2.16033 5.59161 2.08669 5.60078L0.468717 5.81172C0.410418 5.81898 0.351227 5.81197 0.296241 5.79128C0.241254 5.77059 0.192121 5.73684 0.15307 5.69295C0.11402 5.64906 0.0862228 5.59633 0.0720726 5.53931C0.0579226 5.48229 0.0578436 5.42268 0.0718422 5.36562L0.33903 4.24687C0.353556 4.1901 0.381376 4.1376 0.420194 4.0937C0.459011 4.04979 0.507714 4.01575 0.562281 3.99438C0.616848 3.97302 0.675715 3.96493 0.734023 3.9708C0.792331 3.97666 0.848407 3.99631 0.897623 4.02813Z" fill="#212121"/>
</svg>
