<svg width="33" height="33" viewBox="0 0 33 33" fill="none" xmlns="http://www.w3.org/2000/svg">
<path d="M17.0151 10.8383C17.9853 10.8383 18.7719 10.0517 18.7719 9.08149C18.7719 8.11125 17.9853 7.32471 17.0151 7.32471C16.0448 7.32471 15.2583 8.11125 15.2583 9.08149C15.2583 10.0517 16.0448 10.8383 17.0151 10.8383Z" fill="black"/>
<path d="M18.7399 2.53184C17.7356 1.71536 16.2964 1.71529 15.2921 2.5317L3.57565 12.0561C2.1498 13.2152 2.9694 15.5228 4.80693 15.5228H5.30325V25.3605C3.91279 26.0715 2.96087 27.5179 2.96087 29.1866V30.7482C2.96087 31.395 3.48524 31.9194 4.13206 31.9194H29.8982C30.545 31.9194 31.0694 31.395 31.0694 30.7482V29.1866C31.0694 27.5179 30.1175 26.0715 28.727 25.3605V15.5228H29.2227C31.0603 15.5228 31.8799 13.2154 30.4543 12.0562L18.7399 2.53184ZM16.7696 4.34929C16.9131 4.23264 17.1187 4.23266 17.2622 4.34929L28.1239 13.1804H5.90609L16.7696 4.34929ZM26.3847 24.8923H24.0423V15.5228H26.3847V24.8923ZM21.6999 24.8923H18.1863V15.5228H21.6999V24.8923ZM15.844 24.8923H12.3304V15.5228H15.844V24.8923ZM26.7751 27.2347C27.8531 27.2347 28.727 28.1086 28.727 29.1866V29.5771H5.30325V29.1866C5.30325 28.1086 6.17719 27.2347 7.25523 27.2347H26.7751ZM9.98801 24.8923H7.64563V15.5228H9.98801V24.8923Z" fill="black"/>
</svg>
