<svg width="25" height="25" viewBox="0 0 25 25" fill="none" xmlns="http://www.w3.org/2000/svg">
<path d="M5.80811 2.91943H19.8081C20.0733 2.91943 20.3277 3.02479 20.5152 3.21233C20.7027 3.39986 20.8081 3.65422 20.8081 3.91943V13.9194C20.8081 14.1847 20.7027 14.439 20.5152 14.6265C20.3277 14.8141 20.0733 14.9194 19.8081 14.9194H5.80811C5.54289 14.9194 5.28854 14.8141 5.101 14.6265C4.91346 14.439 4.80811 14.1847 4.80811 13.9194V3.91943C4.80811 3.65422 4.91346 3.39986 5.101 3.21233C5.28854 3.02479 5.54289 2.91943 5.80811 2.91943ZM6.80811 4.91943V12.9194H18.8081V4.91943H6.80811ZM20.8081 17.9194C20.8081 18.1847 20.7027 18.439 20.5152 18.6265C20.3277 18.8141 20.0733 18.9194 19.8081 18.9194H5.80811C5.54289 18.9194 5.28854 18.8141 5.101 18.6265C4.91346 18.439 4.80811 18.1847 4.80811 17.9194V16.9194H20.8081V17.9194ZM20.8081 21.9194C20.8081 22.1847 20.7027 22.439 20.5152 22.6265C20.3277 22.8141 20.0733 22.9194 19.8081 22.9194H5.80811C5.54289 22.9194 5.28854 22.8141 5.101 22.6265C4.91346 22.439 4.80811 22.1847 4.80811 21.9194V20.9194H20.8081V21.9194Z" fill="black"/>
</svg>
