<svg width="26" height="26" viewBox="0 0 26 26" fill="none" xmlns="http://www.w3.org/2000/svg">
<path d="M6.62913 4.18274C6.67098 4.23879 6.72912 4.28054 6.79559 4.30228C6.86205 4.32403 6.93361 4.32471 7.00048 4.30422C7.06735 4.28374 7.12626 4.2431 7.16917 4.18785C7.21207 4.13261 7.23688 4.06545 7.24019 3.99557L7.3443 2.43402C7.34858 2.37862 7.33942 2.32302 7.31761 2.27192C7.2958 2.22083 7.26197 2.17577 7.219 2.14057C7.17604 2.10537 7.12521 2.08107 7.07085 2.06974C7.01648 2.05842 6.96018 2.0604 6.90675 2.07552L5.88077 2.39477C5.82769 2.41223 5.77951 2.44204 5.74019 2.48176C5.70087 2.52148 5.67154 2.56997 5.6546 2.62324C5.63766 2.67651 5.6336 2.73304 5.64276 2.78818C5.65191 2.84333 5.67402 2.89551 5.70726 2.94044L6.62913 4.18274Z" fill="#212121"/>
<path d="M4.84875 5.40691L3.44557 4.81821C3.39479 4.79756 3.34987 4.76472 3.31476 4.7226C3.27965 4.68048 3.25544 4.63037 3.24426 4.57667C3.23308 4.52298 3.23528 4.46737 3.25065 4.41472C3.26602 4.36208 3.2941 4.31403 3.33241 4.2748L4.06418 3.49742C4.10171 3.45755 4.14834 3.42736 4.20008 3.40946C4.25182 3.39155 4.30713 3.38647 4.36127 3.39463C4.41541 3.40279 4.46676 3.42396 4.51093 3.45632C4.5551 3.48868 4.59077 3.53127 4.61489 3.58045L5.2863 4.94652C5.31534 5.00866 5.32497 5.07812 5.31395 5.14582C5.30292 5.21352 5.27175 5.27633 5.22451 5.32604C5.17726 5.37576 5.11614 5.41006 5.0491 5.42449C4.98207 5.43891 4.91225 5.43279 4.84875 5.40691Z" fill="#212121"/>
<path d="M23.0463 8.52929C23.5353 8.95152 23.8417 9.54695 23.9011 10.1905C23.904 10.218 23.9056 10.2457 23.9056 10.2735V17.402C23.9637 18.5249 23.7224 19.6432 23.2065 20.6422C22.6906 21.6412 21.9186 22.4851 20.9695 23.0874C20.0301 23.6488 18.9548 23.9415 17.8606 23.9335C17.126 23.9324 16.3967 23.8084 15.703 23.5667C15.0402 23.811 14.3394 23.9365 13.633 23.9372C12.6485 23.9463 11.6759 23.7225 10.7943 23.2841C9.91282 22.8456 9.14736 22.2049 8.5604 21.4141L5.94189 17.1371L4.0559 13.9513C3.79303 13.4431 3.71284 12.8598 3.82877 12.2995C3.94469 11.7391 4.24969 11.2356 4.69261 10.8735C4.8623 10.7581 5.04298 10.6598 5.232 10.5799C5.06397 10.0999 5.05387 9.57868 5.20319 9.09252C5.3525 8.60635 5.65339 8.18074 6.06184 7.87794C6.22724 7.77621 6.40145 7.68957 6.58237 7.61907C6.55851 7.4237 6.56028 7.22604 6.58765 7.03113C6.63831 6.68174 6.76616 6.34805 6.96191 6.0543C7.15765 5.76055 7.41637 5.51413 7.71925 5.33297C8.136 5.09983 8.61239 4.99528 9.08842 5.03249C9.56445 5.06969 10.0188 5.24698 10.3943 5.54203C10.5214 5.40714 10.6657 5.28964 10.8236 5.19259C11.3102 4.90089 11.8917 4.81173 12.4433 4.94428C12.7684 4.85732 13.1071 4.83299 13.4413 4.87258C13.8702 4.91889 14.275 5.09415 14.6024 5.37524C14.7316 5.23748 14.8785 5.11744 15.0392 5.01825C15.5558 4.71376 16.1719 4.62644 16.7527 4.77539C17.3335 4.92434 17.8317 5.29742 18.1382 5.81298L19.7013 8.60551C19.9067 8.39413 20.1518 8.22534 20.4225 8.10879C20.6931 7.99223 20.9841 7.9302 21.2788 7.92625C21.9237 7.8909 22.5573 8.10705 23.0463 8.52929ZM14.1082 11.3739H14.1037L14.0758 11.3935L14.0954 11.3814L14.1082 11.3739ZM8.96141 6.53916C8.80387 6.52793 8.64607 6.55725 8.50307 6.62433V6.62131C8.39034 6.68537 8.29366 6.77424 8.22034 6.8812C8.14702 6.98816 8.09898 7.1104 8.07985 7.23868C8.06016 7.38455 8.09133 7.53275 8.16811 7.65831L9.28764 9.36025C9.31083 9.03509 9.40756 8.71945 9.57052 8.43717C9.73349 8.15489 9.95843 7.91334 10.2284 7.73077C10.265 7.70845 10.3005 7.69221 10.336 7.67594C10.3606 7.66471 10.3852 7.65346 10.4102 7.6402C10.215 7.61509 10.0376 7.51426 9.91605 7.35944L9.44908 6.75565C9.43245 6.73417 9.41709 6.71174 9.40306 6.68848C9.271 6.60179 9.11896 6.55039 8.96141 6.53916ZM7.23568 8.99193C7.09705 9.03182 6.96492 9.09156 6.84339 9.1693L6.84566 9.16628C6.73275 9.30278 6.65861 9.46714 6.631 9.64215C6.60339 9.81716 6.62334 9.99637 6.68874 10.161C6.78462 10.3448 6.85565 10.4782 6.91009 10.5804L6.91506 10.5897L7.97499 12.1837C8.05852 11.7451 8.26045 11.3376 8.55889 11.0056L7.23568 8.99193ZM7.23191 16.3619L9.81798 20.5885L9.82024 20.5854C10.2723 21.1814 10.8611 21.6598 11.537 21.9801C12.2128 22.3003 12.9558 22.4531 13.7031 22.4255C13.3454 22.1226 13.0271 21.776 12.7556 21.3938L10.1107 17.0744L8.99342 15.1876C8.8302 15.2781 8.63901 15.3042 8.45749 15.2608C8.27598 15.2173 8.1173 15.1075 8.01271 14.9528L5.9864 11.9165C5.82343 11.9567 5.66973 12.0279 5.53376 12.1264C5.41497 12.2706 5.33529 12.4431 5.30239 12.6271C5.26949 12.8111 5.28448 13.0004 5.34592 13.177L7.23191 16.3619ZM16.8652 22.3489C18.0007 22.5763 19.1801 22.3819 20.1826 21.8021L20.1849 21.7991C20.8995 21.3391 21.4806 20.6991 21.8695 19.9432C22.2584 19.1874 22.4416 18.3424 22.4006 17.4933V10.321C22.3884 10.1914 22.3506 10.0654 22.2893 9.95054C22.2281 9.83566 22.1445 9.73412 22.0436 9.65186C21.9427 9.5696 21.8265 9.50826 21.7016 9.47141C21.5768 9.43456 21.4459 9.42294 21.3165 9.43723C21.1228 9.44103 20.9372 9.51609 20.7953 9.64807C20.6533 9.78004 20.565 9.95969 20.547 10.1527C20.8397 10.6788 21.0826 11.112 21.2026 11.3195C21.2928 11.492 21.3129 11.6927 21.2586 11.8797C21.2044 12.0666 21.0801 12.2254 20.9116 12.3228C20.7432 12.4202 20.5436 12.4488 20.3546 12.4024C20.1656 12.3561 20.0019 12.2386 19.8975 12.0743C19.7655 11.8463 19.5022 11.3761 19.1891 10.8139L19.1355 10.718V10.672C19.1322 10.667 19.1282 10.6625 19.1243 10.6581C19.1194 10.6526 19.1144 10.647 19.1106 10.6403L16.8474 6.59565C16.789 6.47236 16.6961 6.36863 16.58 6.29699C16.4639 6.22534 16.3295 6.18883 16.1931 6.19186C16.0568 6.19489 15.9242 6.23734 15.8114 6.31407C15.6986 6.39081 15.6104 6.49856 15.5574 6.62433C15.776 6.97704 16.0446 7.40804 16.3297 7.86541L16.4137 8.00021C17.1311 9.15571 17.9081 10.3988 18.1624 10.7927C18.2711 10.9608 18.3087 11.1652 18.2668 11.3609C18.2249 11.5567 18.107 11.7277 17.9391 11.8365C17.7711 11.9453 17.5668 11.9829 17.3711 11.941C17.1755 11.8991 17.0045 11.7812 16.8957 11.6131C16.6324 11.2048 15.8471 9.94743 15.1327 8.80099C14.9042 8.43425 14.6824 8.07765 14.4862 7.76209L14.1799 7.26963L14.1701 7.25378L14.1482 7.2183C14.1451 7.21484 14.1415 7.21186 14.1379 7.20884C14.1336 7.20528 14.1293 7.20167 14.1256 7.19717L13.6541 6.58357C13.6382 6.56168 13.6224 6.53904 13.6088 6.5164C13.5101 6.426 13.382 6.37428 13.2482 6.37073C13.0583 6.33881 12.8632 6.36512 12.6885 6.44621C12.5738 6.51161 12.4755 6.60216 12.4009 6.71105C12.3263 6.81995 12.2773 6.94435 12.2577 7.0749C12.2385 7.2146 12.265 7.35676 12.3331 7.4802C12.6835 7.61914 13.0069 7.8181 13.289 8.06814C13.5216 8.30586 13.7266 8.56918 13.9 8.85306C14.1105 9.17156 14.3481 9.56101 14.5835 9.95347C14.7593 10.2471 14.9335 10.5429 15.0957 10.8184L15.157 10.9218C15.4133 11.3541 15.6306 11.7205 15.7747 11.9437C15.8838 12.1118 15.9218 12.3163 15.8802 12.5123C15.8386 12.7084 15.7209 12.8798 15.5529 12.989C15.3849 13.0982 15.1805 13.1362 14.9845 13.0946C14.7886 13.053 14.6172 12.9352 14.5081 12.7671C14.3357 12.4999 14.074 12.0562 13.7931 11.5799L13.688 11.402L13.6873 11.4007C13.5567 11.1797 13.423 10.9534 13.2912 10.7339C13.0589 10.3452 12.8341 9.97913 12.6424 9.68856C12.5459 9.53535 12.4591 9.41685 12.395 9.33157C12.3658 9.2889 12.3396 9.25663 12.32 9.23254L12.3196 9.23194C12.3108 9.22117 12.3015 9.21084 12.2916 9.201C12.1256 9.05114 11.9326 8.93433 11.7228 8.85684C11.6669 8.84872 11.612 8.83455 11.5591 8.81457C11.3643 8.83782 11.1782 8.90886 11.0175 9.02137C10.9015 9.16006 10.8249 9.32742 10.7959 9.50589C10.7668 9.68437 10.7863 9.86738 10.8523 10.0357L11.0914 10.4803C11.4092 10.616 11.7048 10.799 11.968 11.0229C12.1706 11.2212 12.348 11.4438 12.4961 11.6856C12.659 11.9347 12.8325 12.2282 13.0008 12.5218C13.1019 12.6977 13.2014 12.8743 13.2973 13.0449L13.3025 13.0539L13.3331 13.108C13.5538 13.4991 13.7513 13.8488 13.9128 14.0985C13.969 14.1817 14.008 14.2752 14.0275 14.3737C14.0471 14.4721 14.0468 14.5735 14.0268 14.6718C14.0067 14.7701 13.9672 14.8635 13.9107 14.9464C13.8541 15.0293 13.7816 15.1 13.6973 15.1546C13.6131 15.2091 13.5188 15.2462 13.4201 15.2638C13.3213 15.2815 13.22 15.2792 13.1221 15.2572C13.0243 15.2352 12.9318 15.1938 12.85 15.1356C12.7683 15.0774 12.699 15.0035 12.6462 14.9181C12.4479 14.6126 12.2066 14.1842 11.9721 13.7678C11.8771 13.5987 11.7817 13.4298 11.6896 13.269C11.5252 12.9815 11.3698 12.7188 11.2317 12.5083C11.16 12.4018 11.0997 12.3135 11.0514 12.2509C11.0243 12.2145 10.9948 12.18 10.9632 12.1475C10.7952 12.0085 10.6063 11.8972 10.4034 11.8177C10.3481 11.8085 10.2939 11.7933 10.2419 11.7724C10.0416 11.8088 9.85181 11.889 9.68596 12.0071C9.56574 12.1542 9.48526 12.3297 9.45224 12.5168C9.41922 12.704 9.43476 12.8964 9.49736 13.0758L11.4015 16.2963L14.0139 20.5666C14.7161 21.4878 15.7298 22.1215 16.8652 22.3489Z" fill="#212121"/>
<path d="M2.86998 5.88765L4.17584 6.76465C4.23476 6.80546 4.2799 6.86321 4.30529 6.93025C4.33068 6.9973 4.33513 7.07047 4.31803 7.1401C4.30094 7.20973 4.26312 7.27252 4.20958 7.32016C4.15603 7.36781 4.08928 7.39807 4.01817 7.40693L2.45582 7.61071C2.39952 7.61773 2.34236 7.61095 2.28927 7.59096C2.23617 7.57098 2.18873 7.53838 2.15102 7.49597C2.11331 7.45357 2.08647 7.40263 2.0728 7.34755C2.05914 7.29246 2.05906 7.23488 2.07258 7.17976L2.33059 6.09897C2.34461 6.04413 2.37148 5.9934 2.40896 5.95099C2.44644 5.90858 2.49347 5.8757 2.54616 5.85505C2.59885 5.83441 2.6557 5.8266 2.712 5.83227C2.76831 5.83793 2.82245 5.85692 2.86998 5.88765Z" fill="#212121"/>
</svg>
