<svg width="25" height="17" viewBox="0 0 25 17" fill="none" xmlns="http://www.w3.org/2000/svg">
<g clip-path="url(#clip0_218_4620)">
<mask id="mask0_218_4620" style="mask-type:luminance" maskUnits="userSpaceOnUse" x="0" y="0" width="25" height="17">
<rect x="0.808105" y="0.919434" width="24" height="16" fill="white"/>
</mask>
<g mask="url(#mask0_218_4620)">
<path fill-rule="evenodd" clip-rule="evenodd" d="M0.808105 0.919434H24.8081V16.9194H0.808105V0.919434Z" fill="#E31D1C"/>
<path fill-rule="evenodd" clip-rule="evenodd" d="M0.808105 2.25293V3.58626H24.8081V2.25293H0.808105ZM0.808105 4.91962V6.25295H24.8081V4.91962H0.808105ZM0.808105 8.91962V7.58628H24.8081V8.91962H0.808105ZM0.808105 10.2529V11.5863H24.8081V10.2529H0.808105ZM0.808105 14.2529V12.9196H24.8081V14.2529H0.808105ZM0.808105 16.9196V15.5863H24.8081V16.9196H0.808105Z" fill="#F7FCFF"/>
<rect x="0.808105" y="0.919434" width="13.5" height="9.33333" fill="#2E42A5"/>
<path fill-rule="evenodd" clip-rule="evenodd" d="M2.36831 3.8176L3.16319 3.32543L3.77975 3.71999H3.43066L4.13667 4.27505L3.89821 5.05332H3.52473L3.16208 4.33853L2.8528 5.05332H1.93066L2.63667 5.60838L2.36831 6.48425L3.16319 5.99208L3.77978 6.38665H3.43066L4.13667 6.94172L3.89821 7.71999H3.52473L3.16208 7.00519L2.8528 7.71999H1.93066L2.63667 8.27505L2.36831 9.15092L3.16319 8.65874L3.93229 9.15092L3.69317 8.27505L4.31082 7.71999H4.02593L4.66319 7.32541L5.27978 7.71999H4.93066L5.63667 8.27505L5.36831 9.15092L6.16319 8.65874L6.93229 9.15092L6.69317 8.27505L7.31082 7.71999H7.02593L7.66319 7.32541L8.27978 7.71999H7.93066L8.63667 8.27505L8.36831 9.15092L9.16319 8.65874L9.93229 9.15092L9.69317 8.27505L10.3108 7.71999H10.0259L10.6632 7.32541L11.2798 7.71999H10.9307L11.6367 8.27505L11.3683 9.15092L12.1632 8.65874L12.9323 9.15092L12.6932 8.27505L13.3108 7.71999H12.5247L12.1621 7.00519L11.8528 7.71999H11.4056L11.1932 6.94172L11.8108 6.38665H11.5259L12.1632 5.99208L12.9323 6.48425L12.6932 5.60838L13.3108 5.05332H12.5247L12.1621 4.33853L11.8528 5.05332H11.4056L11.1932 4.27505L11.8108 3.71999H11.526L12.1632 3.32543L12.9323 3.8176L12.6932 2.94173L13.3108 2.38667H12.5247L12.1621 1.67188L11.8528 2.38667H10.9307L11.6367 2.94173L11.3982 3.71999H11.0247L10.6621 3.00519L10.3528 3.71999H9.90564L9.69317 2.94173L10.3108 2.38667H9.52473L9.16207 1.67188L8.8528 2.38667H7.93066L8.63666 2.94173L8.39821 3.71999H8.02473L7.66208 3.00519L7.3528 3.71999H6.90564L6.69317 2.94173L7.31082 2.38667H6.52473L6.16207 1.67188L5.8528 2.38667H4.93066L5.63667 2.94173L5.39821 3.71999H5.02473L4.66208 3.00519L4.3528 3.71999H3.90564L3.69317 2.94173L4.31082 2.38667H3.52473L3.16208 1.67188L2.8528 2.38667H1.93066L2.63667 2.94173L2.36831 3.8176ZM11.3982 6.38665L11.6367 5.60838L10.9307 5.05332H11.2798L10.6632 4.65874L10.0259 5.05332H10.3108L9.69317 5.60838L9.90564 6.38665H10.3528L10.6621 5.67186L11.0247 6.38665H11.3982ZM9.77978 6.38665L9.16319 5.99208L8.52593 6.38665H8.81082L8.19317 6.94172L8.40564 7.71999H8.8528L9.16208 7.00519L9.52473 7.71999H9.89821L10.1367 6.94172L9.43066 6.38665H9.77978ZM7.13667 6.94172L6.89821 7.71999H6.52473L6.16208 7.00519L5.8528 7.71999H5.40564L5.19317 6.94172L5.81082 6.38665H5.52593L6.16319 5.99208L6.77978 6.38665H6.43066L7.13667 6.94172ZM7.3528 6.38665H6.90564L6.69317 5.60838L7.31082 5.05332H7.02593L7.66319 4.65874L8.27978 5.05332H7.93066L8.63667 5.60838L8.39821 6.38665H8.02473L7.66208 5.67186L7.3528 6.38665ZM5.39821 6.38665L5.63667 5.60838L4.93066 5.05332H5.27978L4.66319 4.65874L4.02593 5.05332H4.31082L3.69317 5.60838L3.90564 6.38665H4.3528L4.66208 5.67186L5.02473 6.38665H5.39821ZM10.1367 4.27505L9.89821 5.05332H9.52473L9.16208 4.33853L8.8528 5.05332H8.40564L8.19317 4.27505L8.81082 3.71999H8.52596L9.16319 3.32543L9.77975 3.71999H9.43066L10.1367 4.27505ZM6.77975 3.71999L6.16319 3.32543L5.52596 3.71999H5.81082L5.19317 4.27505L5.40564 5.05332H5.8528L6.16208 4.33853L6.52473 5.05332H6.89821L7.13667 4.27505L6.43066 3.71999H6.77975Z" fill="#F7FCFF"/>
</g>
</g>
<defs>
<clipPath id="clip0_218_4620">
<rect x="0.808105" y="0.919434" width="24" height="16" rx="1" fill="white"/>
</clipPath>
</defs>
</svg>
