<svg width="13" height="11" viewBox="0 0 13 11" fill="none" xmlns="http://www.w3.org/2000/svg">
<path d="M4.8 4L7.5 6.7L6.45 7.75L3.75 5.05L1.05 7.75L0 6.7L2.7 4L0 1.3L1.05 0.25L3.75 2.95L6.45 0.25L7.5 1.3L4.8 4ZM10.7343 9.7555L11.5353 8.89563C11.6823 8.74457 11.8135 8.59008 11.9379 8.43902C12.0578 8.29339 12.1661 8.13868 12.2619 7.97628C12.3517 7.82615 12.4253 7.66691 12.4814 7.50123C12.5346 7.34004 12.5616 7.17133 12.5613 7.00157C12.5635 6.79054 12.5245 6.5811 12.4465 6.38502C12.3726 6.20071 12.257 6.03602 12.1088 5.90382C11.9515 5.76616 11.7674 5.66239 11.5682 5.59898C11.0896 5.45644 10.5783 5.46815 10.1068 5.63246C9.89151 5.7138 9.69619 5.84036 9.53399 6.00362C9.37739 6.16005 9.25597 6.34811 9.17787 6.55523C9.10285 6.75509 9.0633 6.96651 9.06098 7.17998L9.05825 7.35773H10.2128L10.2175 7.18754C10.2187 7.09253 10.2323 6.9981 10.2579 6.9066C10.2829 6.82629 10.3228 6.75141 10.3755 6.68583C10.4287 6.62555 10.4951 6.57831 10.5696 6.54775C10.738 6.48101 10.9249 6.47712 11.0959 6.53681C11.1576 6.56387 11.2126 6.60399 11.2572 6.65441C11.3028 6.70821 11.3378 6.77013 11.3604 6.83691C11.3872 6.91809 11.401 7.00296 11.4015 7.08844C11.4006 7.15563 11.3926 7.22255 11.3775 7.28803C11.3557 7.36624 11.3245 7.44152 11.2845 7.51223C11.2265 7.61439 11.1605 7.71175 11.087 7.8034C10.9862 7.93439 10.8787 8.06009 10.765 8.18003L9.14778 9.94489V10.75H12.75V9.7555H10.7343Z" fill="black"/>
</svg>
