<svg width="12" height="14" viewBox="0 0 12 14" fill="none" xmlns="http://www.w3.org/2000/svg">
<path d="M11.25 12V13.5H0.75V12H11.25ZM9 6.91125C8.9753 7.40624 8.82836 7.8874 8.5723 8.31173C8.31625 8.73606 7.95905 9.09035 7.53264 9.34293C7.10623 9.59551 6.62388 9.73851 6.12871 9.75916C5.63353 9.77981 5.14096 9.67745 4.695 9.46125C4.18098 9.23887 3.74505 8.8681 3.44308 8.39642C3.1411 7.92475 2.98682 7.37366 3 6.81375V0.75375H1.5V6.91125C1.52537 7.61731 1.71664 8.30747 2.05831 8.92587C2.39999 9.54427 2.88247 10.0735 3.4667 10.4708C4.05094 10.8681 4.7205 11.1222 5.42121 11.2126C6.12191 11.3031 6.83406 11.2272 7.5 10.9913C8.38583 10.696 9.15439 10.1259 9.69392 9.36377C10.2335 8.60168 10.5158 7.68736 10.5 6.75375V0.75375H9V6.91125ZM9 0.75H10.5H9ZM3 0.75H1.5H3Z" fill="black"/>
</svg>
