<svg width="14" height="11" viewBox="0 0 14 11" fill="none" xmlns="http://www.w3.org/2000/svg">
<path d="M4.8 6.99997L7.5 9.69997L6.45 10.75L3.75 8.04997L1.05 10.75L0 9.69997L2.7 6.99997L0 4.29997L1.05 3.24997L3.75 5.94997L6.45 3.24997L7.5 4.29997L4.8 6.99997ZM11.4843 4.50547L12.2853 3.6456C12.4323 3.49454 12.5635 3.34005 12.6879 3.189C12.8078 3.04336 12.9161 2.88865 13.0119 2.72625C13.1017 2.57612 13.1753 2.41688 13.2314 2.2512C13.2846 2.09001 13.3116 1.9213 13.3113 1.75154C13.3135 1.54051 13.2745 1.33107 13.1965 1.13499C13.1226 0.950684 13.007 0.785985 12.8588 0.653793C12.7015 0.51613 12.5174 0.412359 12.3182 0.348948C11.8396 0.20641 11.3283 0.218126 10.8568 0.382436C10.6415 0.463773 10.4462 0.590337 10.284 0.753588C10.1274 0.910022 10.006 1.09808 9.92787 1.3052C9.85285 1.50506 9.8133 1.71648 9.81098 1.92995L9.80825 2.1077H10.9628L10.9675 1.93747C10.9687 1.84247 10.9823 1.74803 11.0079 1.65654C11.0329 1.57623 11.0728 1.50134 11.1255 1.43576C11.1787 1.37548 11.2452 1.32825 11.3196 1.29768C11.488 1.23094 11.6749 1.22706 11.8459 1.28675C11.9076 1.31381 11.9626 1.35393 12.0072 1.40434C12.0528 1.45814 12.0878 1.52006 12.1104 1.58684C12.1372 1.66802 12.151 1.7529 12.1515 1.83837C12.1506 1.90557 12.1426 1.97248 12.1275 2.03796C12.1057 2.11617 12.0745 2.19145 12.0345 2.26216C11.9765 2.36432 11.9105 2.46169 11.837 2.55333C11.7362 2.68432 11.6288 2.81003 11.515 2.92996L9.89782 4.69479V5.49997H13.5V4.50547H11.4843Z" fill="black"/>
</svg>
