<svg width="10" height="12" viewBox="0 0 10 12" fill="none" xmlns="http://www.w3.org/2000/svg">
<path d="M7.43755 5.85C7.80477 5.62638 8.11467 5.32006 8.34255 4.95547C8.57042 4.59087 8.70996 4.17808 8.75005 3.75C8.757 3.36291 8.68763 2.97825 8.5459 2.61797C8.40417 2.2577 8.19285 1.92888 7.92401 1.65029C7.65517 1.3717 7.33408 1.14881 6.97909 0.994332C6.62409 0.839858 6.24214 0.756833 5.85505 0.75H0.987549V11.25H6.23755C6.60591 11.2461 6.9699 11.1696 7.30872 11.025C7.64754 10.8804 7.95456 10.6705 8.21224 10.4073C8.46993 10.144 8.67324 9.83257 8.81055 9.49074C8.94787 9.1489 9.01651 8.78336 9.01255 8.415V8.325C9.01281 7.80533 8.86474 7.29639 8.58574 6.85797C8.30675 6.41954 7.90841 6.06986 7.43755 5.85ZM2.48755 2.25H5.63755C5.95718 2.24011 6.27219 2.32821 6.54031 2.50249C6.80842 2.67677 7.01683 2.92888 7.13755 3.225C7.2597 3.62084 7.2202 4.04894 7.02766 4.41574C6.83513 4.78254 6.50522 5.05821 6.11005 5.1825C5.95658 5.22747 5.79747 5.25021 5.63755 5.25H2.48755V2.25ZM5.93755 9.75H2.48755V6.75H5.93755C6.25718 6.74011 6.57219 6.82821 6.84031 7.00249C7.10842 7.17677 7.31683 7.42888 7.43755 7.725C7.5597 8.12084 7.5202 8.54894 7.32766 8.91574C7.13513 9.28254 6.80522 9.55821 6.41005 9.6825C6.25659 9.72747 6.09747 9.75021 5.93755 9.75Z" fill="black"/>
</svg>
