<svg width="27" height="27" viewBox="0 0 27 27" fill="none" xmlns="http://www.w3.org/2000/svg">
<circle cx="13.8081" cy="13.9194" r="13" fill="#039E00"/>
<path d="M20.2869 8.8018L17.8894 6.39561C17.5765 6.10063 17.1665 5.93138 16.7373 5.92004C16.3082 5.90871 15.8898 6.05609 15.5619 6.33414L7.68679 14.2377C7.40396 14.5239 7.22785 14.8991 7.18804 15.3002L6.81178 18.9622C6.8 19.0908 6.81663 19.2205 6.86049 19.3419C6.90435 19.4634 6.97436 19.5736 7.06554 19.6647C7.1473 19.7461 7.24426 19.8105 7.35087 19.8542C7.45748 19.8979 7.57164 19.9201 7.68679 19.9194H7.76554L11.4143 19.5857C11.814 19.5458 12.1879 19.369 12.4731 19.0852L20.3482 11.1816C20.6538 10.8576 20.819 10.4251 20.8075 9.97901C20.7961 9.53293 20.6089 9.1096 20.2869 8.8018ZM11.2568 17.8294L8.6318 18.0753L8.86806 15.4408L13.8119 10.5406L16.1744 12.9116L11.2568 17.8294ZM17.3119 11.7349L14.9669 9.38139L16.6731 7.62505L19.0619 10.0225L17.3119 11.7349Z" fill="white"/>
</svg>
