<svg width="20" height="26" viewBox="0 0 20 26" fill="none" xmlns="http://www.w3.org/2000/svg">
<path d="M13.9094 14.965L12.7108 10.1873L9.96192 4.04734C9.6123 3.14403 10.0615 2.1279 10.9648 1.77898C11.8674 1.42657 12.8842 1.87857 13.2339 2.78188L17.554 13.7643L13.9094 14.965Z" fill="#EF9645"/>
<path d="M19.7243 13.2319C19.3844 11.4344 18.3397 8.68893 18.3397 8.68893L14.3094 1.3838C13.8734 0.518806 12.8175 0.171971 11.9532 0.607256C11.0882 1.04324 10.74 2.09837 11.1767 2.96337L14.8888 9.61243C14.8979 9.62776 15.8729 13.4367 15.8729 13.4367C15.1221 12.7437 14.0572 11.7937 13.0766 10.9169C10.919 8.98632 9.63892 8.2627 9.63892 8.2627C9.14443 7.95417 8.81779 7.9103 8.15407 8.22161L4.06448 10.0101C3.95514 10.0644 3.86251 10.141 3.78938 10.2392L2.17848 12.3885C1.55654 13.1316 1.65474 14.2376 2.39786 14.8588C3.14028 15.4808 4.24556 15.3812 4.86889 14.6402C4.90232 14.5998 6.10858 12.8572 6.21723 12.8015C6.93945 12.4303 8.28222 11.7937 8.86933 11.8125C9.49405 11.8327 13.2438 15.9613 13.2438 15.9613C13.3872 16.1417 13.404 16.3917 13.2856 16.5895L11.2554 20.2306C11.2004 20.3218 11.121 20.395 11.0256 20.4416L9.16324 21.4863C9.05598 21.5386 8.9348 21.5553 8.81779 21.533L5.14747 19.9506C4.965 19.8719 4.81317 19.7278 4.73517 19.5446C4.18706 18.2562 4.10975 17.0241 4.10905 17.0102C4.06378 16.0421 3.24266 15.2948 2.27459 15.3401C1.3086 15.3791 0.559217 16.2058 0.604487 17.1739C0.613541 17.357 0.848943 21.1019 3.89664 23.6453C5.65728 25.1135 7.8344 25.6818 10.6167 25.3078C13.8288 24.8767 15.8186 24.449 18.6302 18.651C19.4081 17.0457 19.9555 14.4556 19.7243 13.2319Z" fill="#FFDC5D"/>
</svg>
