<svg width="24" height="26" viewBox="0 0 24 26" fill="none" xmlns="http://www.w3.org/2000/svg">
<path d="M23.2181 12.7765C23.2181 12.4248 23.1342 12.0948 22.9937 11.7949C22.0561 8.77048 17.667 8.9914 11.4238 8.84389C10.38 8.81942 10.9771 7.58686 11.3434 4.88125C11.5818 3.12155 10.4472 0.419434 8.53995 0.419434C5.39529 0.419434 8.4204 2.89993 5.63998 9.03405C4.15434 12.3115 0.833496 10.4756 0.833496 13.7678V21.2617C0.833496 22.5432 0.959339 23.7751 2.76168 23.9778C4.5088 24.1743 4.11589 25.4194 6.63623 25.4194H19.2512C20.5362 25.4194 21.5814 24.3735 21.5814 23.0886C21.5814 22.5558 21.3948 22.0706 21.0934 21.6777C21.8065 21.2785 22.2959 20.5249 22.2959 19.651C22.2959 19.1196 22.11 18.6344 21.8093 18.2422C22.5245 17.8437 23.0153 17.0894 23.0153 16.2141C23.0153 15.5786 22.758 15.0025 22.3435 14.5809C22.8727 14.1537 23.2181 13.5077 23.2181 12.7765Z" fill="#FFDB5E"/>
<path d="M14.8736 15.1067H20.8888C21.7068 15.1067 22.4744 14.669 22.8925 13.965C23.0645 13.6748 22.9687 13.2994 22.6779 13.1267C22.3877 12.954 22.0123 13.0512 21.8396 13.3414C21.6418 13.6762 21.2761 13.8832 20.8881 13.8832H14.7288C14.1185 13.8832 13.6221 13.3868 13.6221 12.7765C13.6221 12.1661 14.1185 11.6698 14.7288 11.6698H18.8446C19.1823 11.6698 19.4563 11.3957 19.4563 11.058C19.4563 10.7203 19.1823 10.4463 18.8446 10.4463H14.7281C13.4431 10.4463 12.3979 11.4915 12.3979 12.7765C12.3979 13.4931 12.73 14.1272 13.2404 14.555C12.8104 14.978 12.5427 15.5653 12.5427 16.2141C12.5427 16.9328 12.8769 17.569 13.39 17.9961C12.9628 18.4184 12.6979 19.0036 12.6979 19.651C12.6979 20.434 13.0887 21.1247 13.6829 21.5477C13.3166 21.9595 13.0873 22.4957 13.0873 23.0886C13.0873 24.3736 14.1325 25.4187 15.4175 25.4187H19.2515C20.0694 25.4187 20.8378 24.9818 21.2559 24.2778C21.4285 23.9876 21.3328 23.6122 21.0426 23.4395C20.7518 23.2682 20.3764 23.3626 20.2044 23.6528C20.0051 23.9876 19.6395 24.1953 19.2515 24.1953H15.4175C14.8071 24.1953 14.3108 23.6989 14.3108 23.0886C14.3108 22.4782 14.8071 21.9818 15.4175 21.9818H19.966C20.784 21.9818 21.553 21.5442 21.9704 20.8402C22.1431 20.5493 22.0473 20.1739 21.7571 20.0019C21.4642 19.8264 21.0902 19.925 20.9189 20.2152C20.7168 20.5556 20.3603 20.7584 19.966 20.7584H15.0281C14.4177 20.7584 13.9213 20.2613 13.9213 19.651C13.9213 19.0406 14.4177 18.5443 15.0281 18.5443H20.6847C21.5027 18.5443 22.271 18.1073 22.6891 17.4033C22.8618 17.1131 22.766 16.7377 22.4758 16.565C22.1843 16.393 21.8096 16.4881 21.6376 16.7783C21.4355 17.118 21.079 17.3208 20.6847 17.3208H14.8736C14.2632 17.3208 13.7668 16.8244 13.7668 16.2141C13.7668 15.6037 14.2625 15.1067 14.8736 15.1067Z" fill="#EE9547"/>
</svg>
