<svg width="26" height="26" viewBox="0 0 26 26" fill="none" xmlns="http://www.w3.org/2000/svg">
<path d="M23.2451 17.3417C22.7612 16.6384 23.0313 15.6219 22.9109 14.4995C22.7869 12.6683 22.0001 10.8941 20.4739 9.47512L15.2755 4.64155C15.2755 4.64155 14.2512 3.68834 13.2973 4.71327C12.3448 5.73749 13.3698 6.6907 13.3698 6.6907L15.5658 8.73358L17.4694 10.5035C17.4694 10.5035 16.9925 11.016 14.8856 9.05665L7.76958 2.43783C7.76958 2.43783 6.74396 1.48532 5.79076 2.51024C4.83825 3.53447 5.86247 4.48767 5.86247 4.48767L12.5913 10.7465C12.5767 10.7326 12.0823 11.2283 12.0733 11.22L4.87376 4.52388C4.87376 4.52388 3.84884 3.57067 2.89563 4.5956C1.94242 5.62052 2.96735 6.57303 2.96735 6.57303L10.1676 13.2705C10.1759 13.2789 9.7122 13.8025 9.72612 13.8157L3.51532 8.038C3.51532 8.038 2.4904 7.08479 1.53719 8.10971C0.583984 9.13464 1.60891 10.0878 1.60891 10.0878L8.21242 16.229C8.27299 16.2854 7.86428 16.8612 7.94017 16.9316L3.1818 12.506C3.1818 12.506 2.15688 11.5528 1.20367 12.5784C0.250467 13.6034 1.27539 14.5566 1.27539 14.5566L9.03681 21.7721C10.3326 22.9774 11.6632 23.5873 13.2674 23.8108C13.594 23.8561 14.0117 23.8561 14.183 23.8776C14.724 23.9459 15.1989 24.1381 15.8346 24.528C16.6527 25.0293 17.8802 25.2382 18.5856 24.4841L20.9905 21.9114L23.211 19.5357C23.9156 18.7823 23.7896 18.132 23.2451 17.3417Z" fill="#EF9645"/>
<path d="M2.11566 24.7775C1.93741 24.7775 1.75917 24.7092 1.62339 24.5735C1.35115 24.3012 1.35115 23.8612 1.62339 23.5889L4.09588 21.1178C4.36812 20.8456 4.80817 20.8456 5.08042 21.1178C5.35266 21.3901 5.35266 21.8301 5.08042 22.1024L2.60793 24.5742C2.47216 24.7099 2.29391 24.7775 2.11566 24.7775ZM6.81276 25.4194C6.73686 25.4194 6.65888 25.4069 6.58229 25.3804C6.21953 25.2537 6.02805 24.8568 6.15547 24.4934L6.83156 22.5626C6.95828 22.1998 7.35585 22.0091 7.71862 22.1351C8.08138 22.2625 8.27285 22.6594 8.14544 23.0221L7.46935 24.9529C7.36908 25.2398 7.10032 25.4194 6.81276 25.4194ZM1.47439 20.0811C1.18752 20.0811 0.918757 19.9021 0.817797 19.6166C0.689681 19.2539 0.879765 18.8563 1.24253 18.7282L2.97974 18.1148C3.3439 17.9894 3.74008 18.1781 3.86819 18.5395C3.99631 18.9023 3.80623 19.2998 3.44346 19.428L1.70625 20.0414C1.62896 20.0685 1.55098 20.0811 1.47439 20.0811ZM21.9868 4.92516C21.8085 4.92516 21.6303 4.85693 21.4945 4.72115C21.2222 4.44891 21.2222 4.00816 21.4945 3.73592L23.9677 1.26413C24.2399 0.992578 24.68 0.992578 24.9522 1.26413C25.2245 1.53568 25.2245 1.97712 24.9522 2.24936L22.479 4.72115C22.3433 4.85762 22.165 4.92516 21.9868 4.92516ZM19.0875 3.74358C19.0116 3.74358 18.9336 3.73035 18.8577 3.70389C18.4949 3.57717 18.3034 3.18029 18.4302 2.81683L19.1056 0.886047C19.233 0.523286 19.6292 0.331809 19.9926 0.458532C20.3554 0.585255 20.5469 0.982134 20.4201 1.34559L19.7447 3.27637C19.6445 3.56394 19.375 3.74358 19.0875 3.74358ZM23.3647 7.76389C23.0778 7.76389 22.8091 7.58495 22.7081 7.29947C22.58 6.93671 22.7708 6.53913 23.1328 6.41102L24.8694 5.7976C25.2328 5.66879 25.6297 5.86026 25.7578 6.22233C25.8859 6.58509 25.6951 6.98267 25.3331 7.11078L23.5966 7.7242C23.5193 7.75136 23.4413 7.76389 23.3647 7.76389Z" fill="#FA743E"/>
<path d="M25.3949 16.9762C24.9346 16.2577 25.2389 15.2501 25.1567 14.1243C25.0941 12.2903 24.3679 10.4904 22.8903 9.02053L17.8576 4.01498C17.8576 4.01498 16.8661 3.02835 15.8781 4.02055C14.8915 5.01205 15.8837 5.99938 15.8837 5.99938L18.0101 8.11537L19.8525 9.94797C19.8525 9.94797 19.3581 10.4437 17.3187 8.41477C15.2779 6.38511 10.4297 1.5599 10.4297 1.5599C10.4297 1.5599 9.43754 0.573275 8.45022 1.56547C7.4629 2.55697 8.45509 3.5436 8.45509 3.5436L14.9695 10.026C14.9556 10.012 14.4445 10.4904 14.4354 10.4813L7.46568 3.54639C7.46568 3.54639 6.47349 2.55906 5.48616 3.55126C4.49953 4.54346 5.49104 5.53008 5.49104 5.53008L12.4615 12.4664C12.4698 12.4748 11.988 12.9824 12.0019 12.9963L5.98957 7.01316C5.98957 7.01316 4.99737 6.02653 4.01005 7.01873C3.02273 8.01092 4.01493 8.99825 4.01493 8.99825L10.4075 15.3588C10.4659 15.4165 10.0384 15.9791 10.1115 16.0522L5.50496 11.4686C5.50496 11.4686 4.51276 10.482 3.52544 11.4742C2.53812 12.4664 3.53031 13.4537 3.53031 13.4537L11.0432 20.9262C12.2979 22.1746 13.6069 22.8284 15.2027 23.1063C15.5279 23.1626 15.9457 23.1766 16.1156 23.2037C16.6538 23.2901 17.1217 23.4983 17.7448 23.9098C18.5456 24.4382 19.7654 24.6882 20.4958 23.9585L22.9864 21.4686L25.2855 19.1695C26.0159 18.4384 25.9122 17.7839 25.3949 16.9762Z" fill="#FFDB5E"/>
</svg>
