<svg width="23" height="26" viewBox="0 0 23 26" fill="none" xmlns="http://www.w3.org/2000/svg">
<path d="M22.6024 13.0624C22.6024 13.4141 22.5185 13.7441 22.3779 14.044C21.4404 17.0684 17.0513 16.8475 10.8081 16.995C9.76432 17.0194 10.3614 18.252 10.7277 20.9576C10.9661 22.7173 9.83144 25.4194 7.92423 25.4194C4.77956 25.4194 7.80468 22.9389 5.02426 16.8048C3.53862 13.5273 0.217773 15.3632 0.217773 12.071V4.57783C0.217773 3.29633 0.343616 2.06447 2.14596 1.86173C3.89307 1.66457 3.50016 0.419434 6.02051 0.419434H18.6355C19.9205 0.419434 20.9657 1.46532 20.9657 2.75032C20.9657 3.28305 20.779 3.76824 20.4777 4.16115C21.1908 4.56035 21.6802 5.31401 21.6802 6.18791C21.6802 6.71925 21.4942 7.20444 21.1936 7.59665C21.9088 7.99515 22.3996 8.7495 22.3996 9.62481C22.3996 10.2603 22.1423 10.8364 21.7277 11.258C22.257 11.6851 22.6024 12.3311 22.6024 13.0624Z" fill="#FFDB5E"/>
<path d="M14.2578 10.732H20.2731C21.0911 10.732 21.8587 11.1697 22.2768 11.8737C22.4488 12.1638 22.353 12.5392 22.0622 12.7119C21.772 12.8846 21.3966 12.7874 21.2239 12.4973C21.0261 12.1624 20.6604 11.9555 20.2724 11.9555H14.1131C13.5028 11.9555 13.0064 12.4519 13.0064 13.0622C13.0064 13.6725 13.5028 14.1689 14.1131 14.1689H18.2289C18.5665 14.1689 18.8406 14.443 18.8406 14.7806C18.8406 15.1183 18.5665 15.3924 18.2289 15.3924H14.1124C12.8274 15.3924 11.7822 14.3472 11.7822 13.0622C11.7822 12.3456 12.1143 11.7115 12.6247 11.2836C12.1947 10.8607 11.9269 10.2734 11.9269 9.6246C11.9269 8.9059 12.2611 8.26969 12.7743 7.84253C12.3471 7.42026 12.0822 6.83509 12.0822 6.1877C12.0822 5.40468 12.473 4.71395 13.0672 4.29098C12.7009 3.87919 12.4716 3.34296 12.4716 2.7501C12.4716 1.46511 13.5168 0.419922 14.8017 0.419922H18.6357C19.4537 0.419922 20.2221 0.856875 20.6401 1.56089C20.8128 1.85103 20.717 2.22646 20.4269 2.39914C20.1361 2.57043 19.7606 2.47605 19.5887 2.18591C19.3894 1.85103 19.0238 1.64339 18.6357 1.64339H14.8017C14.1914 1.64339 13.695 2.13977 13.695 2.7501C13.695 3.36044 14.1914 3.85682 14.8017 3.85682H19.3503C20.1682 3.85682 20.9373 4.29447 21.3546 4.99849C21.5273 5.28933 21.4315 5.66476 21.1414 5.83674C20.8485 6.01222 20.4744 5.91364 20.3032 5.62351C20.1011 5.28303 19.7446 5.08029 19.3503 5.08029H14.4123C13.802 5.08029 13.3056 5.57736 13.3056 6.1877C13.3056 6.79804 13.802 7.29441 14.4123 7.29441H20.069C20.8869 7.29441 21.6553 7.73137 22.0733 8.43539C22.246 8.72552 22.1502 9.10095 21.8601 9.27364C21.5686 9.44562 21.1938 9.35054 21.0219 9.0604C20.8198 8.72063 20.4633 8.51788 20.069 8.51788H14.2578C13.6475 8.51788 13.1511 9.01426 13.1511 9.6246C13.1511 10.2349 13.6468 10.732 14.2578 10.732Z" fill="#EE9547"/>
</svg>
