<svg width="33" height="33" viewBox="0 0 33 33" fill="none" xmlns="http://www.w3.org/2000/svg">
<g clip-path="url(#clip0_218_4461)">
<path d="M19.8335 28.9194H13.8335C13.3033 28.9188 12.7949 28.7079 12.42 28.333C12.045 27.958 11.8341 27.4497 11.8335 26.9194V21.9194H6.8335C6.30325 21.9188 5.7949 21.7079 5.41995 21.333C5.04501 20.958 4.8341 20.4497 4.8335 19.9194V13.9194C4.83403 13.3892 5.04491 12.8808 5.41987 12.5058C5.79483 12.1308 6.30323 11.92 6.8335 11.9194H11.8335V6.91943C11.834 6.38916 12.0449 5.88076 12.4199 5.50581C12.7948 5.13085 13.3032 4.91996 13.8335 4.91943H19.8335C20.3637 4.92004 20.8721 5.13095 21.247 5.50589C21.622 5.88083 21.8329 6.38919 21.8335 6.91943V11.9194H26.8335C27.3637 11.92 27.8721 12.131 28.247 12.5059C28.622 12.8808 28.8329 13.3892 28.8335 13.9194V19.9194C28.8328 20.4496 28.6218 20.9579 28.2469 21.3329C27.872 21.7078 27.3637 21.9187 26.8335 21.9194H21.8335V26.9194C21.8328 27.4496 21.6218 27.9579 21.2469 28.3329C20.872 28.7078 20.3637 28.9187 19.8335 28.9194ZM6.8335 13.9194V19.9194H13.8335V26.9194H19.8335V19.9194H26.8335V13.9194H19.8335V6.91943H13.8335V13.9194H6.8335Z" fill="black"/>
</g>
<defs>
<clipPath id="clip0_218_4461">
<rect width="32" height="32" fill="white" transform="translate(0.833496 0.919434)"/>
</clipPath>
</defs>
</svg>
