<svg width="33" height="33" viewBox="0 0 33 33" fill="none" xmlns="http://www.w3.org/2000/svg">
<path d="M28.8333 15.5859H24.1667V4.91927C24.1667 4.56565 24.0262 4.22651 23.7761 3.97646C23.5261 3.72641 23.187 3.58594 22.8333 3.58594H10.8333C10.4797 3.58594 10.1406 3.72641 9.89052 3.97646C9.64048 4.22651 9.5 4.56565 9.5 4.91927V15.5859H4.83333C4.47971 15.5859 4.14057 15.7264 3.89052 15.9765C3.64048 16.2265 3.5 16.5656 3.5 16.9193V28.9193C3.5 29.2729 3.64048 29.612 3.89052 29.8621C4.14057 30.1121 4.47971 30.2526 4.83333 30.2526H28.8333C29.187 30.2526 29.5261 30.1121 29.7761 29.8621C30.0262 29.612 30.1667 29.2729 30.1667 28.9193V16.9193C30.1667 16.5656 30.0262 16.2265 29.7761 15.9765C29.5261 15.7264 29.187 15.5859 28.8333 15.5859ZM15.5 27.5859H6.16667V18.2526H15.5V27.5859ZM12.1667 15.5859V6.2526H21.5V15.5859H12.1667ZM27.5 27.5859H18.1667V18.2526H27.5V27.5859Z" fill="black"/>
</svg>
