<svg width="33" height="33" viewBox="0 0 33 33" fill="none" xmlns="http://www.w3.org/2000/svg">
<g clip-path="url(#clip0_218_4464)">
<path d="M27.5003 8.91943H31.5003V11.5861H30.167V26.2528H31.5003V28.9194H2.16699V26.2528H3.50033V11.5861H2.16699V8.91943H6.16699V6.25277C6.16699 5.89914 6.30747 5.56001 6.55752 5.30996C6.80757 5.05991 7.1467 4.91943 7.50033 4.91943H26.167C26.5206 4.91943 26.8598 5.05991 27.1098 5.30996C27.3599 5.56001 27.5003 5.89914 27.5003 6.25277V8.91943ZM27.5003 11.5861H6.16699V26.2528H10.167V16.9194H12.8337V26.2528H15.5003V16.9194H18.167V26.2528H20.8337V16.9194H23.5003V26.2528H27.5003V11.5861ZM8.83366 7.5861V8.91943H24.8337V7.5861H8.83366Z" fill="black"/>
</g>
<defs>
<clipPath id="clip0_218_4464">
<rect width="32" height="32" fill="white" transform="translate(0.833496 0.919434)"/>
</clipPath>
</defs>
</svg>
