<svg width="4" height="12" viewBox="0 0 4 12" fill="none" xmlns="http://www.w3.org/2000/svg">
<path d="M1.82004 3.75H3.32004L1.67004 11.25H0.170044L1.82004 3.75ZM3.08004 0.75C2.93171 0.75 2.7867 0.793987 2.66337 0.876398C2.54003 0.958809 2.4439 1.07594 2.38713 1.21299C2.33037 1.35003 2.31552 1.50083 2.34446 1.64632C2.37339 1.7918 2.44482 1.92544 2.54971 2.03033C2.6546 2.13522 2.78824 2.20665 2.93373 2.23559C3.07921 2.26453 3.23001 2.24968 3.36706 2.19291C3.5041 2.13614 3.62124 2.04001 3.70365 1.91668C3.78606 1.79334 3.83004 1.64834 3.83004 1.5C3.83004 1.30109 3.75103 1.11032 3.61037 0.96967C3.46972 0.829018 3.27896 0.75 3.08004 0.75Z" fill="black"/>
</svg>
