<svg width="49" height="49" viewBox="0 0 49 49" fill="none" xmlns="http://www.w3.org/2000/svg">
<path d="M40.9354 22.4583H8.06458C6.99338 22.4583 6.125 23.3266 6.125 24.3978V24.602C6.125 25.6732 6.99338 26.5416 8.06458 26.5416H40.9354C42.0066 26.5416 42.875 25.6732 42.875 24.602V24.3978C42.875 23.3266 42.0066 22.4583 40.9354 22.4583Z" fill="black"/>
<path d="M40.9354 32.6667H8.06458C6.99338 32.6667 6.125 33.5351 6.125 34.6063V34.8105C6.125 35.8817 6.99338 36.7501 8.06458 36.7501H40.9354C42.0066 36.7501 42.875 35.8817 42.875 34.8105V34.6063C42.875 33.5351 42.0066 32.6667 40.9354 32.6667Z" fill="black"/>
<path d="M40.9354 12.25H8.06458C6.99338 12.25 6.125 13.1184 6.125 14.1896V14.3938C6.125 15.465 6.99338 16.3333 8.06458 16.3333H40.9354C42.0066 16.3333 42.875 15.465 42.875 14.3938V14.1896C42.875 13.1184 42.0066 12.25 40.9354 12.25Z" fill="black"/>
</svg>
