<svg width="33" height="33" viewBox="0 0 33 33" fill="none" xmlns="http://www.w3.org/2000/svg">
<path d="M11.584 16.9199C11.584 17.8864 10.8005 18.6699 9.83397 18.6699C8.86749 18.6699 8.08398 17.8864 8.08398 16.9199C8.08398 15.9534 8.86749 15.1699 9.83397 15.1699C10.8005 15.1699 11.584 15.9534 11.584 16.9199Z" fill="black"/>
<path d="M18.584 16.9199C18.584 17.8864 17.8005 18.6699 16.834 18.6699C15.8675 18.6699 15.084 17.8864 15.084 16.9199C15.084 15.9534 15.8675 15.1699 16.834 15.1699C17.8005 15.1699 18.584 15.9534 18.584 16.9199Z" fill="black"/>
<path d="M25.584 16.9199C25.584 17.8864 24.8005 18.6699 23.834 18.6699C22.8675 18.6699 22.084 17.8864 22.084 16.9199C22.084 15.9534 22.8675 15.1699 23.834 15.1699C24.8005 15.1699 25.584 15.9534 25.584 16.9199Z" fill="black"/>
<path d="M16.8339 2.91992C9.10194 2.91992 2.83398 9.18788 2.83398 16.9198C2.83398 24.6518 9.10194 30.9197 16.8339 30.9197C24.5658 30.9197 30.8337 24.6518 30.8337 16.9198C30.8337 9.18788 24.5658 2.91992 16.8339 2.91992ZM4.58397 16.9198C4.58397 10.1544 10.0684 4.66991 16.8339 4.66991C23.5993 4.66991 29.0838 10.1544 29.0838 16.9198C29.0838 23.6852 23.5993 29.1697 16.8339 29.1697C10.0684 29.1697 4.58397 23.6852 4.58397 16.9198Z" fill="black"/>
</svg>
