<svg width="26" height="26" viewBox="0 0 26 26" fill="none" xmlns="http://www.w3.org/2000/svg">
<path d="M17.9358 2.0625C18.314 2.0625 18.6632 2.17565 18.9688 2.36422C19.1361 2.47737 23.1808 5.30603 23.1953 10.4127C23.1953 12.784 22.3209 14.7241 21.3873 16.1182C20.9886 17.0096 20.4715 17.8588 19.8377 18.6382L19.8362 18.64C19.4092 19.1618 18.9441 19.6526 18.4552 20.0973C17.9917 20.5532 17.5102 20.9653 17.0175 21.3247C14.6854 23.0479 11.882 23.9375 9.03158 23.9375H3.51742C2.71555 23.9375 2.0625 23.2603 2.0625 22.4289V15.6401C2.0625 14.8086 2.71555 14.1315 3.51742 14.1315H6.7619C7.52842 14.1315 8.23273 13.709 8.61157 13.0244L8.61365 13.0207L12.4797 6.12592C12.8079 5.51188 13.3159 5.0727 13.8976 4.83429C14.1193 3.37634 15.4276 2.30778 16.8042 2.44075C17.1223 2.20271 17.5131 2.0625 17.9358 2.0625ZM17.1588 4.11666C16.364 3.62119 15.2536 4.29012 15.3225 5.3615L15.3264 5.42267C15.5413 5.46451 15.7548 5.54327 15.957 5.66053C16.538 5.99259 16.9061 6.56928 17.0089 7.19735C17.0089 7.19738 17.0089 7.19732 17.0089 7.19735L17.4853 7.88183C18.2653 9.00236 18.6705 10.2334 18.6705 11.5367C18.6705 11.6937 18.6629 11.8417 18.6562 11.9738L18.6544 12.009L18.6536 12.0192C18.5208 13.7399 17.1208 15.0442 15.4696 15.0442C14.5043 15.0442 13.7237 14.2278 13.7237 13.2263C13.7237 12.9178 13.7986 12.617 13.9475 12.3445C14.213 11.8464 14.485 11.3703 14.7515 10.9038C15.2985 9.94649 15.8224 9.02943 16.2193 8.04472L16.2239 8.0331L16.256 7.95326C16.432 7.3363 16.1767 6.64735 15.6059 6.32114L15.6019 6.31887C15.3191 6.15488 15.0108 6.11006 14.7424 6.16109L14.5303 6.20142C14.2052 6.30599 13.9248 6.53199 13.7501 6.86139L13.7459 6.86926L9.87239 13.7773C9.23252 14.9319 8.04607 15.6401 6.7619 15.6401H3.51742V22.4289H9.03158C11.5927 22.4289 14.099 21.6293 16.1749 20.0948L16.1788 20.092C16.6127 19.7756 17.0435 19.4074 17.4636 18.9932L17.4745 18.9825L17.4858 18.9722C17.9236 18.575 18.3419 18.1343 18.7262 17.6647C22.1025 13.5119 21.6174 7.20961 17.1588 4.11666ZM15.939 11.7884C15.6853 12.2331 15.4391 12.6647 15.2189 13.0781L15.2164 13.0829L15.2137 13.0876C15.1901 13.1305 15.1786 13.1748 15.1786 13.2263C15.1786 13.4016 15.3146 13.5356 15.4696 13.5356C16.376 13.5356 17.1273 12.8232 17.2026 11.9082L17.2026 11.9064C17.2099 11.7644 17.2155 11.6528 17.2155 11.5367C17.2155 11.0043 17.1253 10.4821 16.9396 9.97148C16.6213 10.5923 16.2736 11.2018 15.939 11.7884Z" fill="#212121"/>
</svg>
