<svg width="66" height="66" viewBox="0 0 66 66" fill="none" xmlns="http://www.w3.org/2000/svg">
<path d="M32.9167 0C51.0959 0 65.8333 14.7373 65.8333 32.9167C65.8333 51.0959 51.0959 65.8333 32.9167 65.8333C27.5898 65.8333 22.442 64.5647 17.8173 62.173L5.22401 65.6862C3.03531 66.2975 0.765576 65.0186 0.154412 62.83C-0.0478607 62.1059 -0.0477617 61.3399 0.154544 60.6164L3.66892 48.0327C1.2718 43.4039 0 38.2502 0 32.9167C0 14.7373 14.7373 0 32.9167 0ZM32.9167 4.9375C17.4642 4.9375 4.9375 17.4642 4.9375 32.9167C4.9375 37.7541 6.16453 42.4079 8.46956 46.5359L8.96545 47.4237L5.30274 60.5384L18.4253 56.8774L19.3125 57.3721C23.4369 59.6717 28.0852 60.8958 32.9167 60.8958C48.3691 60.8958 60.8958 48.3691 60.8958 32.9167C60.8958 17.4642 48.3691 4.9375 32.9167 4.9375ZM32.9167 44.4375C34.7347 44.4375 36.2083 45.9112 36.2083 47.7292C36.2083 49.5472 34.7347 51.0208 32.9167 51.0208C31.0987 51.0208 29.625 49.5472 29.625 47.7292C29.625 45.9112 31.0987 44.4375 32.9167 44.4375ZM32.9167 15.6354C37.916 15.6354 41.9688 19.6882 41.9688 24.6875C41.9688 28.0147 40.9895 29.8686 38.5089 32.4512L37.9539 33.0164C35.9068 35.0635 35.3854 35.9328 35.3854 37.8542C35.3854 39.2176 34.2801 40.3229 32.9167 40.3229C31.5533 40.3229 30.4479 39.2176 30.4479 37.8542C30.4479 34.527 31.4272 32.6731 33.9078 30.0904L34.4628 29.5253C36.5098 27.4782 37.0312 26.6088 37.0312 24.6875C37.0312 22.4151 35.1892 20.5729 32.9167 20.5729C30.7863 20.5729 29.0341 22.192 28.8235 24.2668L28.8021 24.6875C28.8021 26.0509 27.6967 27.1562 26.3333 27.1562C24.9699 27.1562 23.8646 26.0509 23.8646 24.6875C23.8646 19.6882 27.9173 15.6354 32.9167 15.6354Z" fill="white"/>
</svg>
