<svg width="17" height="15" viewBox="0 0 17 15" fill="none" xmlns="http://www.w3.org/2000/svg">
<path d="M15.9001 13.4924L11.5908 9.36381C12.4734 8.18778 12.9147 6.68646 12.6811 5.08506C12.2917 2.40771 10.0332 0.280846 7.20351 0.0306263C3.38738 -0.344703 0.142378 2.78304 0.531779 6.48629C0.791379 9.16363 2.99798 11.3906 5.77571 11.7659C7.43715 11.9911 8.96879 11.5407 10.2149 10.715L14.5242 14.8686C14.706 15.0438 15.0175 15.0438 15.1992 14.8686L15.8742 14.2181C16.0818 13.9929 16.0818 13.6926 15.9001 13.4924ZM2.45282 5.88576C2.45282 3.68383 4.32195 1.85723 6.63239 1.85723C8.94283 1.85723 10.812 3.65881 10.812 5.88576C10.812 8.11271 8.94283 9.91429 6.63239 9.91429C4.32195 9.91429 2.45282 8.13773 2.45282 5.88576Z" fill="#262626"/>
</svg>
