<svg width="25" height="17" viewBox="0 0 25 17" fill="none" xmlns="http://www.w3.org/2000/svg">
<g clip-path="url(#clip0_218_4497)">
<mask id="mask0_218_4497" style="mask-type:luminance" maskUnits="userSpaceOnUse" x="0" y="0" width="25" height="17">
<rect x="0.808105" y="0.919434" width="24" height="16" fill="white"/>
</mask>
<g mask="url(#mask0_218_4497)">
<path fill-rule="evenodd" clip-rule="evenodd" d="M0.808105 0.919434V16.9194H24.8081V0.919434H0.808105Z" fill="#FFB400"/>
<mask id="mask1_218_4497" style="mask-type:luminance" maskUnits="userSpaceOnUse" x="0" y="0" width="25" height="17">
<path fill-rule="evenodd" clip-rule="evenodd" d="M0.808105 0.919434V16.9194H24.8081V0.919434H0.808105Z" fill="white"/>
</mask>
<g mask="url(#mask1_218_4497)">
<path fill-rule="evenodd" clip-rule="evenodd" d="M0.808105 0.919434V4.91943H24.8081V0.919434H0.808105Z" fill="#C51918"/>
<path fill-rule="evenodd" clip-rule="evenodd" d="M0.808105 12.9194V16.9194H24.8081V12.9194H0.808105Z" fill="#C51918"/>
<rect x="4.56445" y="7.76709" width="0.84" height="3.88267" fill="#F1F9FF"/>
<path fill-rule="evenodd" clip-rule="evenodd" d="M5.74003 7.09521H4.22803V7.46855H4.48001V7.76723H5.48801V7.46855H5.74003V7.09521Z" fill="#C88A02"/>
<path fill-rule="evenodd" clip-rule="evenodd" d="M5.48803 11.8739H5.74003V12.2472H4.22803V11.8739H4.48003V11.5752H5.48803V11.8739Z" fill="#C88A02"/>
<path fill-rule="evenodd" clip-rule="evenodd" d="M4.984 7.16997C5.1668 7.16997 5.18538 7.10878 5.29322 7.0174C5.37696 6.94644 5.572 6.85844 5.572 6.7593C5.572 6.53249 5.30874 6.34863 4.984 6.34863C4.65925 6.34863 4.396 6.53249 4.396 6.7593C4.396 6.86974 4.53031 6.94359 4.63186 7.0174C4.73885 7.09516 4.81739 7.16997 4.984 7.16997Z" fill="#AD1619"/>
<path fill-rule="evenodd" clip-rule="evenodd" d="M4.22803 12.2471H5.74003V12.8444C5.74003 12.8444 5.55103 12.7697 5.36203 12.7697C5.17303 12.7697 4.98403 12.8444 4.98403 12.8444C4.98403 12.8444 4.79503 12.7697 4.60603 12.7697C4.41703 12.7697 4.22803 12.8444 4.22803 12.8444V12.2471Z" fill="#005BBF"/>
<mask id="mask2_218_4497" style="mask-type:luminance" maskUnits="userSpaceOnUse" x="4" y="12" width="2" height="1">
<path fill-rule="evenodd" clip-rule="evenodd" d="M4.22803 12.2471H5.74003V12.8444C5.74003 12.8444 5.55103 12.7697 5.36203 12.7697C5.17303 12.7697 4.98403 12.8444 4.98403 12.8444C4.98403 12.8444 4.79503 12.7697 4.60603 12.7697C4.41703 12.7697 4.22803 12.8444 4.22803 12.8444V12.2471Z" fill="white"/>
</mask>
<g mask="url(#mask2_218_4497)">
<path d="M4.21415 12.7271L4.18115 12.6556C4.31734 12.6017 4.45401 12.5747 4.59088 12.5747C4.67931 12.5747 4.72549 12.5857 4.80399 12.6167C4.87295 12.644 4.90869 12.6525 4.98411 12.6525C5.05952 12.6525 5.09526 12.644 5.16422 12.6167C5.24272 12.5857 5.2889 12.5747 5.37733 12.5747C5.51421 12.5747 5.65088 12.6017 5.78706 12.6556L5.75406 12.7271C5.62809 12.6773 5.50261 12.6525 5.37733 12.6525C5.30192 12.6525 5.26618 12.661 5.19722 12.6882C5.11872 12.7193 5.07254 12.7303 4.98411 12.7303C4.89568 12.7303 4.8495 12.7193 4.77099 12.6882C4.70204 12.661 4.66629 12.6525 4.59088 12.6525C4.4656 12.6525 4.34012 12.6773 4.21415 12.7271Z" fill="white"/>
<path d="M4.21415 12.503L4.18115 12.4315C4.31734 12.3776 4.45401 12.3506 4.59088 12.3506C4.67931 12.3506 4.72549 12.3615 4.80399 12.3926C4.87295 12.4199 4.90869 12.4284 4.98411 12.4284C5.05952 12.4284 5.09526 12.4199 5.16422 12.3926C5.24272 12.3615 5.2889 12.3506 5.37733 12.3506C5.51421 12.3506 5.65088 12.3776 5.78706 12.4315L5.75406 12.503C5.62809 12.4532 5.50261 12.4284 5.37733 12.4284C5.30192 12.4284 5.26618 12.4368 5.19722 12.4641C5.11872 12.4952 5.07254 12.5061 4.98411 12.5061C4.89568 12.5061 4.8495 12.4952 4.77099 12.4641C4.70204 12.4368 4.66629 12.4284 4.59088 12.4284C4.4656 12.4284 4.34012 12.4532 4.21415 12.503Z" fill="white"/>
</g>
<rect x="12.7964" y="7.76709" width="0.84" height="3.88267" fill="#F1F9FF"/>
<path fill-rule="evenodd" clip-rule="evenodd" d="M13.972 7.09521H12.46V7.46855H12.712V7.76723H13.72V7.46855H13.972V7.09521Z" fill="#C88A02"/>
<path fill-rule="evenodd" clip-rule="evenodd" d="M13.72 11.8739H13.972V12.2472H12.46V11.8739H12.712V11.5752H13.72V11.8739Z" fill="#C88A02"/>
<path fill-rule="evenodd" clip-rule="evenodd" d="M13.2164 7.16997C13.3992 7.16997 13.4178 7.10878 13.5256 7.0174C13.6094 6.94644 13.8044 6.85844 13.8044 6.7593C13.8044 6.53249 13.5412 6.34863 13.2164 6.34863C12.8917 6.34863 12.6284 6.53249 12.6284 6.7593C12.6284 6.86974 12.7627 6.94359 12.8643 7.0174C12.9713 7.09516 13.0498 7.16997 13.2164 7.16997Z" fill="#AD1619"/>
<path fill-rule="evenodd" clip-rule="evenodd" d="M12.46 12.2471H13.972V12.8444C13.972 12.8444 13.783 12.7697 13.594 12.7697C13.405 12.7697 13.216 12.8444 13.216 12.8444C13.216 12.8444 13.027 12.7697 12.838 12.7697C12.649 12.7697 12.46 12.8444 12.46 12.8444V12.2471Z" fill="#005BBF"/>
<mask id="mask3_218_4497" style="mask-type:luminance" maskUnits="userSpaceOnUse" x="12" y="12" width="2" height="1">
<path fill-rule="evenodd" clip-rule="evenodd" d="M12.46 12.2471H13.972V12.8444C13.972 12.8444 13.783 12.7697 13.594 12.7697C13.405 12.7697 13.216 12.8444 13.216 12.8444C13.216 12.8444 13.027 12.7697 12.838 12.7697C12.649 12.7697 12.46 12.8444 12.46 12.8444V12.2471Z" fill="white"/>
</mask>
<g mask="url(#mask3_218_4497)">
<path d="M12.4461 12.7271L12.4131 12.6556C12.5493 12.6017 12.6859 12.5747 12.8228 12.5747C12.9112 12.5747 12.9574 12.5857 13.0359 12.6167C13.1049 12.644 13.1406 12.6525 13.216 12.6525C13.2915 12.6525 13.3272 12.644 13.3962 12.6167C13.4747 12.5857 13.5208 12.5747 13.6093 12.5747C13.7461 12.5747 13.8828 12.6017 14.019 12.6556L13.986 12.7271C13.86 12.6773 13.7345 12.6525 13.6093 12.6525C13.5339 12.6525 13.4981 12.661 13.4292 12.6882C13.3507 12.7193 13.3045 12.7303 13.216 12.7303C13.1276 12.7303 13.0814 12.7193 13.0029 12.6882C12.934 12.661 12.8982 12.6525 12.8228 12.6525C12.6975 12.6525 12.5721 12.6773 12.4461 12.7271Z" fill="white"/>
<path d="M12.4461 12.503L12.4131 12.4315C12.5493 12.3776 12.6859 12.3506 12.8228 12.3506C12.9112 12.3506 12.9574 12.3615 13.0359 12.3926C13.1049 12.4199 13.1406 12.4284 13.216 12.4284C13.2915 12.4284 13.3272 12.4199 13.3962 12.3926C13.4747 12.3615 13.5208 12.3506 13.6093 12.3506C13.7461 12.3506 13.8828 12.3776 14.019 12.4315L13.986 12.503C13.86 12.4532 13.7345 12.4284 13.6093 12.4284C13.5339 12.4284 13.4981 12.4368 13.4292 12.4641C13.3507 12.4952 13.3045 12.5061 13.216 12.5061C13.1276 12.5061 13.0814 12.4952 13.0029 12.4641C12.934 12.4368 12.8982 12.4284 12.8228 12.4284C12.6975 12.4284 12.5721 12.4532 12.4461 12.503Z" fill="white"/>
</g>
<path fill-rule="evenodd" clip-rule="evenodd" d="M4.54917 11.3724C4.70061 11.2092 4.7853 11.0607 4.7853 10.903C4.7853 10.8036 4.75201 10.7177 4.69369 10.6475L4.70355 10.6436C4.70264 10.6439 4.86969 10.5792 4.92785 10.5544C5.03596 10.5084 5.13121 10.4595 5.22407 10.3995C5.28336 10.3612 5.3628 10.3194 5.4839 10.2616L5.59771 10.2078L5.62842 10.1933C5.68727 10.1654 5.7311 10.144 5.77182 10.123C5.89869 10.0576 5.98254 10.0036 6.04667 9.93127C6.19856 9.76007 6.16702 9.52798 5.95418 9.39917C5.8499 9.33606 5.70918 9.29985 5.50291 9.27134L5.46027 9.26548L5.20789 9.2307C5.10918 9.21692 5.02111 9.20406 4.94257 9.19187C5.459 9.11549 6.19643 9.14356 6.5208 9.29243L6.82909 8.76166C6.16808 8.4583 4.66199 8.48928 4.09939 8.83367C3.68674 9.08628 3.74211 9.46812 4.17145 9.63254C4.35085 9.70125 4.58472 9.74684 5.01751 9.80865C4.94499 9.84604 4.88486 9.88021 4.82883 9.91642C4.77201 9.95315 4.71114 9.98435 4.6373 10.0158C4.602 10.0309 4.49746 10.0717 4.44952 10.0904L4.4495 10.0904L4.44948 10.0904L4.42539 10.0998C4.07568 10.2412 3.90595 10.4367 3.95667 10.7897L3.98412 10.9808L4.03337 10.9942L4.54917 11.3724ZM4.11688 10.8786L4.11581 10.8813L4.11663 10.8794L4.11688 10.8786ZM13.3377 10.903C13.3377 11.0607 13.4223 11.2092 13.5738 11.3724L14.0896 10.9942L14.1388 10.9808L14.1663 10.7897C14.217 10.4367 14.0473 10.2412 13.6976 10.0998L13.6734 10.0904C13.6255 10.0717 13.521 10.0309 13.4857 10.0158C13.4118 9.98435 13.3509 9.95315 13.2941 9.91642C13.2381 9.88021 13.178 9.84604 13.1054 9.80865C13.5382 9.74684 13.7721 9.70125 13.9515 9.63254C14.3808 9.46812 14.4362 9.08628 14.0236 8.83367C13.461 8.48928 11.9549 8.4583 11.2939 8.76166L11.6022 9.29243C11.9265 9.14356 12.664 9.11549 13.1804 9.19187C13.1019 9.20406 13.0138 9.21692 12.9151 9.2307L12.6628 9.26547L12.62 9.27134C12.4138 9.29985 12.2731 9.33606 12.1688 9.39917C11.9559 9.52798 11.9244 9.76007 12.0763 9.93127C12.1404 10.0036 12.2243 10.0576 12.3511 10.123C12.3919 10.144 12.4357 10.1654 12.4945 10.1933L12.5253 10.2079L12.6391 10.2616C12.7602 10.3194 12.8396 10.3612 12.8989 10.3995C12.9917 10.4595 13.087 10.5084 13.1951 10.5544C13.2533 10.5792 13.4203 10.6439 13.4194 10.6436L13.4293 10.6475C13.3709 10.7177 13.3377 10.8036 13.3377 10.903Z" fill="#AD1619"/>
<path d="M5.25097 9.18604L5.49891 9.23163V9.56012C5.23484 9.74741 4.56445 10.0631 4.56445 10.0631V9.18604H5.25097Z" fill="#F1F9FF"/>
<path d="M13.044 9.18604L12.796 9.23163V9.56012C13.0601 9.74741 13.7305 10.0631 13.7305 10.0631V9.18604H13.044Z" fill="#F1F9FF"/>
<path fill-rule="evenodd" clip-rule="evenodd" d="M11.8905 5.72329V5.61397C11.4584 5.33834 11.0059 5.20052 10.5331 5.20052C10.0798 5.0222 9.62092 4.95299 9.15655 4.99287C9.15667 4.99161 9.15674 4.99097 9.15674 4.99097C8.45851 4.93024 7.75483 5.20054 7.75483 5.20054C7.04555 5.20054 6.39746 5.61399 6.39746 5.61399V5.72331L7.24468 6.47966C7.24468 6.47966 7.48316 7.20766 9.15328 7.03656V7.03839C9.15328 7.03839 10.259 7.01156 10.3367 6.98859C10.3676 6.97947 10.3995 6.97118 10.4322 6.9627C10.6488 6.90649 10.8961 6.84233 11.0432 6.47964L11.8905 5.72329ZM9.15328 5.02638C9.12916 5.27831 8.99151 6.79609 9.15328 7.03143V5.02638Z" fill="#AD1619"/>
<path fill-rule="evenodd" clip-rule="evenodd" d="M7.0437 6.35252L7.04426 6.35019L6.44824 5.85174L6.5058 5.79736L7.06508 6.26508L7.07939 6.2066C7.17089 6.22428 7.23777 6.23078 7.27675 6.2271V6.12564L7.40073 6.18528C7.46171 6.21461 7.54904 6.2225 7.66406 6.20586C7.74855 6.19364 7.80555 6.10643 7.82419 5.92058L7.86182 5.54541L7.98805 5.90497C8.04516 6.06768 8.1323 6.13941 8.25635 6.13941C8.37751 6.13941 8.42621 6.09992 8.43159 6.0004L8.44683 5.71815L8.59043 5.97026C8.64216 6.06108 8.71351 6.10229 8.81495 6.10229C8.96004 6.10229 9.05695 5.99477 9.05695 5.82607H9.05969H9.22495H9.22769C9.22769 5.99477 9.32461 6.10229 9.46969 6.10229C9.57114 6.10229 9.64248 6.06108 9.69421 5.97026L9.83781 5.71815L9.85306 6.0004C9.85843 6.09992 9.90713 6.13941 10.0283 6.13941C10.1523 6.13941 10.2395 6.06768 10.2966 5.90497L10.4228 5.54541L10.4605 5.92058C10.4791 6.10643 10.5361 6.19364 10.6206 6.20586C10.7356 6.2225 10.8229 6.21461 10.8839 6.18528L11.0079 6.12564V6.2271C11.0469 6.23078 11.1138 6.22428 11.2053 6.2066L11.2318 6.31517L11.851 5.79736L11.9085 5.85174L11.1381 6.49609C11.0257 6.6801 10.969 6.80156 10.969 6.85202C10.969 6.92899 10.7438 6.97468 10.3041 7.02161C9.9596 7.05837 9.55308 7.08304 9.22055 7.08673V7.08721L9.17839 7.08709L9.13623 7.08721V7.08673C8.8037 7.08304 8.39718 7.05837 8.05272 7.02161C7.61303 6.97468 7.38774 6.92899 7.38774 6.85202C7.38774 6.84248 7.38571 6.8304 7.38167 6.81585C7.33731 6.76565 7.30613 6.6835 7.28538 6.60941C7.26592 6.57478 7.2437 6.53698 7.21872 6.49609L7.04805 6.35336L7.0437 6.35252ZM11.1728 6.36454C11.0352 6.38619 10.9359 6.384 10.8832 6.34585C10.8007 6.36718 10.704 6.36923 10.5936 6.35326C10.4757 6.3362 10.3935 6.26647 10.3441 6.15081C10.2796 6.22385 10.1981 6.26895 10.1004 6.28354C10.6379 6.3513 11.0144 6.44655 11.0144 6.44655C11.0144 6.44655 11.0051 6.51731 10.9826 6.6005C11.0065 6.55695 11.0348 6.50855 11.0675 6.45514L11.0756 6.4458L11.1728 6.36454ZM9.84665 6.25515C9.79991 6.2345 9.76259 6.20457 9.73561 6.16599C9.69554 6.19744 9.64997 6.22045 9.59936 6.23465C9.68386 6.24039 9.76647 6.24733 9.84665 6.25515ZM9.30276 6.22012C9.23734 6.19324 9.18295 6.1502 9.14232 6.09506C9.10198 6.14981 9.04808 6.19263 8.98327 6.21954C9.02166 6.21853 9.06027 6.21781 9.09907 6.21743V6.21709L9.13275 6.21717L9.16644 6.21709V6.21743C9.21215 6.21788 9.25762 6.21879 9.30276 6.22012ZM7.27507 6.4407L7.19678 6.37522C7.29077 6.3835 7.36034 6.37564 7.40148 6.34585C7.48393 6.36718 7.58063 6.36923 7.69105 6.35326C7.80897 6.3362 7.8911 6.26647 7.94051 6.15081C8.00315 6.22174 8.08187 6.26632 8.17582 6.2822C7.71241 6.34007 7.36666 6.41881 7.27507 6.4407ZM8.68165 6.23361C8.60028 6.23898 8.52062 6.24548 8.44316 6.25281C8.48749 6.23227 8.52305 6.20314 8.54904 6.16599C8.58814 6.19669 8.63249 6.21934 8.68165 6.23361ZM10.7482 6.85349C10.807 6.87797 10.8542 6.85355 10.8915 6.80667C10.8883 6.81962 10.8863 6.83132 10.8855 6.8418C10.8805 6.84467 10.873 6.84812 10.8631 6.85182C10.8354 6.86216 10.7931 6.87318 10.7382 6.88432C10.6301 6.90624 10.4763 6.92802 10.294 6.94747C9.9381 6.98546 9.51486 7.01046 9.17839 7.01242C8.84192 7.01046 8.41868 6.98546 8.06274 6.94747C7.88046 6.92802 7.72666 6.90624 7.61861 6.88432C7.57254 6.87498 7.5354 6.86573 7.50829 6.85689C7.51127 6.85589 7.51428 6.85475 7.51732 6.85349C7.70082 6.77716 8.91423 6.70554 9.13275 6.69318C9.35127 6.70554 10.5647 6.77716 10.7482 6.85349ZM10.9796 6.83981L10.9783 6.84112L10.9791 6.84017L10.9796 6.83981Z" fill="#C88A02"/>
<path fill-rule="evenodd" clip-rule="evenodd" d="M9.14263 4.48413C9.2818 4.48413 9.39463 4.38384 9.39463 4.26013C9.39463 4.13642 9.2818 4.03613 9.14263 4.03613C9.00345 4.03613 8.89062 4.13642 8.89062 4.26013C8.89062 4.38384 9.00345 4.48413 9.14263 4.48413Z" fill="#005BBF"/>
<path fill-rule="evenodd" clip-rule="evenodd" d="M10.4154 5.79967C10.3459 5.80291 10.2846 5.72208 10.2785 5.61912C10.2725 5.51617 10.3239 5.43009 10.3934 5.42685C10.4629 5.42361 10.5241 5.50445 10.5302 5.6074C10.5363 5.71035 10.4848 5.79644 10.4154 5.79967ZM11.1735 6.0912C11.2759 6.1396 11.3854 6.13456 11.4181 6.07995L11.4198 6.07689C11.4299 6.08638 11.4418 6.09329 11.4554 6.09699C11.522 6.11508 11.6034 6.04981 11.6373 5.95123C11.6712 5.85264 11.6448 5.75805 11.5782 5.73997C11.5117 5.72188 11.4303 5.78715 11.3963 5.88573C11.3881 5.90968 11.3834 5.9334 11.382 5.95583C11.3591 5.93249 11.3284 5.91072 11.2918 5.89342C11.1894 5.84502 11.0799 5.85006 11.0472 5.90468C11.0146 5.95929 11.0711 6.0428 11.1735 6.0912ZM7.05185 6.11409C6.94944 6.16249 6.83995 6.15745 6.80728 6.10283C6.80667 6.10182 6.8061 6.1008 6.80556 6.09978C6.79547 6.10927 6.78353 6.11617 6.7699 6.11987C6.70336 6.13796 6.62192 6.0727 6.58801 5.97411C6.5541 5.87552 6.58056 5.78094 6.64711 5.76285C6.71366 5.74477 6.79509 5.81003 6.829 5.90862C6.83724 5.93257 6.84191 5.95628 6.84332 5.97872C6.86622 5.95538 6.89695 5.9336 6.93354 5.91631C7.03595 5.86791 7.14544 5.87295 7.17811 5.92756C7.21078 5.98218 7.15425 6.06569 7.05185 6.11409Z" fill="#C88A02"/>
<path fill-rule="evenodd" clip-rule="evenodd" d="M9.04825 3.63721H9.22325V3.73548H9.33759V3.89104H9.22325V4.20215H9.33759V4.3577H8.93213V4.20215H9.04825V3.89104H8.93213V3.73548H9.04825V3.63721Z" fill="#C88A02"/>
<rect x="9.01611" y="4.48193" width="0.336" height="0.970667" fill="#C88A02"/>
<path d="M7.66373 4.64499L7.66227 4.71965C6.91744 4.70809 6.4902 4.80471 6.38175 4.99728C6.26962 5.19636 6.29047 5.43837 6.44758 5.72586L6.37202 5.75848C6.2044 5.45175 6.1815 5.18603 6.30663 4.96385C6.43543 4.73516 6.8874 4.63295 7.66373 4.64499Z" fill="white"/>
<path d="M7.80793 5.3069L7.76487 5.371C7.60267 5.28491 7.52148 5.138 7.52148 4.93553C7.52148 4.64454 7.69012 4.47391 8.06313 4.35713C8.3012 4.28261 8.62641 4.31316 9.03967 4.44635L9.01104 4.51655C8.61431 4.38869 8.30734 4.35985 8.09104 4.42756C7.7489 4.53467 7.60548 4.67978 7.60548 4.93553C7.60548 5.11321 7.67291 5.23523 7.80793 5.3069Z" fill="white"/>
<path d="M6.55346 5.61115L6.39495 5.66063C6.23049 5.2444 6.27745 4.96173 6.55847 4.83979C6.8061 4.73234 7.16699 4.68862 7.64293 4.70576L7.63613 4.85497C7.1855 4.83874 6.85025 4.87936 6.63217 4.97399C6.44748 5.05412 6.4137 5.25745 6.55346 5.61115Z" fill="#C88A02"/>
<path d="M8.40529 4.54533C8.02118 4.54533 7.86345 4.62849 7.77333 4.87401C7.71591 5.03048 7.7716 5.16402 7.9522 5.28868L7.84916 5.40662C7.61535 5.24524 7.53292 5.04758 7.61362 4.82769C7.72846 4.51479 7.9538 4.396 8.40529 4.396C8.7012 4.396 8.93172 4.4651 9.09223 4.60574L9.11726 4.62767V5.34765H8.94926V4.6915C8.8239 4.59472 8.64384 4.54533 8.40529 4.54533Z" fill="#C88A02"/>
<path d="M10.5951 4.7197L10.5965 4.79436C11.3413 4.7828 11.7686 4.87942 11.877 5.07198C11.9892 5.27107 11.9683 5.51308 11.8112 5.80057L11.8868 5.83319C12.0544 5.52646 12.0773 5.26073 11.9522 5.03856C11.8234 4.80986 11.3714 4.70765 10.5951 4.7197Z" fill="white"/>
<path d="M10.3322 5.32252L10.3753 5.38663C10.5375 5.30054 10.6187 5.15362 10.6187 4.95116C10.6187 4.66017 10.45 4.48953 10.077 4.37276C9.83894 4.29823 9.51373 4.32879 9.10047 4.46197L9.1291 4.53217C9.52582 4.40432 9.8328 4.37547 10.0491 4.44319C10.3912 4.55029 10.5347 4.69541 10.5347 4.95116C10.5347 5.12883 10.4672 5.25086 10.3322 5.32252Z" fill="white"/>
<path d="M11.7576 5.68586L11.9161 5.73534C12.0805 5.31911 12.0336 5.03643 11.7526 4.9145C11.5049 4.80705 11.144 4.76332 10.6681 4.78047L10.6749 4.92968C11.1255 4.91345 11.4608 4.95407 11.6789 5.0487C11.8636 5.12883 11.8973 5.33216 11.7576 5.68586Z" fill="#C88A02"/>
<path d="M9.89598 4.55705C10.2801 4.55705 10.4378 4.6402 10.5279 4.88573C10.5854 5.0422 10.5297 5.17574 10.3491 5.3004L10.4521 5.41834C10.6859 5.25696 10.7684 5.0593 10.6876 4.83941C10.5728 4.52651 10.3475 4.40771 9.89598 4.40771C9.60007 4.40771 9.36955 4.47682 9.20904 4.61746L9.18401 4.63939V5.35937H9.35201V4.70322C9.47737 4.60644 9.65743 4.55705 9.89598 4.55705Z" fill="#C88A02"/>
<path opacity="0.3" fill-rule="evenodd" clip-rule="evenodd" d="M6.41211 7.0957H11.8721V11.4563C11.8721 11.4563 11.4665 12.9197 9.14211 12.9197C6.81769 12.9197 6.41211 11.4177 6.41211 11.4177V7.0957Z" fill="#E1E5E8"/>
<mask id="mask4_218_4497" style="mask-type:luminance" maskUnits="userSpaceOnUse" x="6" y="7" width="6" height="6">
<path fill-rule="evenodd" clip-rule="evenodd" d="M6.41211 7.0957H11.8721V11.4563C11.8721 11.4563 11.4665 12.9197 9.14211 12.9197C6.81769 12.9197 6.41211 11.4177 6.41211 11.4177V7.0957Z" fill="white"/>
</mask>
<g mask="url(#mask4_218_4497)">
<rect x="6.41211" y="9.78369" width="2.772" height="2.912" fill="#FFC034"/>
<rect x="6.74805" y="9.93311" width="0.336" height="2.76267" fill="#AD1619"/>
<rect x="7.92432" y="9.93311" width="0.336" height="2.76267" fill="#AD1619"/>
<rect x="7.33594" y="9.93311" width="0.336" height="2.76267" fill="#AD1619"/>
<rect x="8.51221" y="9.93311" width="0.336" height="2.76267" fill="#AD1619"/>
<rect x="6.41211" y="7.021" width="2.772" height="2.83733" fill="#AD1619"/>
<rect x="9.1001" y="9.70898" width="2.772" height="2.83733" fill="#AD1619"/>
<rect x="9.1001" y="7.0957" width="2.94" height="2.76267" fill="#F1F9FF"/>
<path fill-rule="evenodd" clip-rule="evenodd" d="M7.588 7.31982H7.84V7.9393H8.008V7.62956H8.26V7.9393H8.512V8.32646H8.26001V9.02335H8.512V9.41051H7V9.02335H7.25201V8.32646H7V7.9393H7.16803V7.62956H7.42003V7.9393H7.588V7.31982Z" fill="#C88A02"/>
<path d="M10.542 7.44982L10.714 7.28613L11.0752 7.58602L10.9031 7.74971L10.542 7.44982Z" fill="#C88A02"/>
<path fill-rule="evenodd" clip-rule="evenodd" d="M11.578 11.6796V10.0449H9.47803V11.666L9.48136 11.6786C9.58766 12.0812 9.94969 12.2849 10.528 12.2849C11.1058 12.2849 11.4678 12.0865 11.5745 11.6926L11.578 11.6796ZM10.528 12.0609C10.064 12.0609 9.81057 11.922 9.73001 11.6395V10.2689H11.326V11.6525C11.2457 11.9257 10.9922 12.0609 10.528 12.0609Z" fill="#FFC034"/>
<path fill-rule="evenodd" clip-rule="evenodd" d="M10.615 10.1816H10.44V10.9227L9.75014 10.2558L9.62647 10.3569L10.2504 10.96H9.68509V11.184H10.1193H10.2641L9.62646 11.8005L9.75014 11.9015L10.44 11.2346V12.1009H10.615V11.3125L11.2242 11.9015L11.3479 11.8005L10.7103 11.184H11.422V10.96H10.724L11.3479 10.3569L11.2242 10.2558L10.615 10.8448V10.1816Z" fill="#FFC034"/>
<path fill-rule="evenodd" clip-rule="evenodd" d="M10.92 12.548C10.92 12.548 9.14083 12.6723 9.14083 11.6523C9.14083 11.6523 9.12386 12.548 7.26611 12.548V13.3532H10.92V12.548Z" fill="#F1F9FF"/>
<path fill-rule="evenodd" clip-rule="evenodd" d="M9.14221 10.3812C9.49015 10.3812 9.77221 10.1138 9.77221 9.78386C9.77221 9.45396 9.49015 9.18652 9.14221 9.18652C8.79427 9.18652 8.51221 9.45396 8.51221 9.78386C8.51221 10.1138 8.79427 10.3812 9.14221 10.3812Z" fill="#005BBF" stroke="#AD1619" stroke-width="0.729167"/>
</g>
</g>
</g>
</g>
<defs>
<clipPath id="clip0_218_4497">
<rect x="0.808105" y="0.919434" width="24" height="16" rx="1" fill="white"/>
</clipPath>
</defs>
</svg>
