<svg width="20" height="24" viewBox="0 0 20 24" fill="none" xmlns="http://www.w3.org/2000/svg">
<path d="M2.73436 21.4181C2.00777 20.6488 1.44591 19.7392 1.0832 18.7451C0.720492 17.751 0.564568 16.6933 0.624985 15.6368C0.624985 11.1909 2.69758 9.8085 4.36303 8.69767L4.36405 8.69699C5.02357 8.33057 5.59917 7.83028 6.05389 7.22824C6.30311 6.82746 6.33749 6.4134 6.33749 3.82043C6.31328 3.33721 6.38834 2.85415 6.55805 2.40107C6.72776 1.94798 6.9885 1.53447 7.3242 1.18606C7.97297 0.578098 8.83206 0.245159 9.72108 0.257149C11.464 0.257149 12.6781 1.36574 13.039 3.30402C13.1717 4.6371 13.1683 5.98021 13.0289 7.3126H15.6015C17.2518 7.3126 18.5937 8.65458 18.5937 10.3048C18.5956 10.5277 18.5747 10.7496 18.5318 10.967C18.4847 11.2114 18.4105 11.4491 18.3071 11.674C18.9491 12.2106 19.375 12.9941 19.375 13.8936L19.375 13.8986C19.3814 14.3054 19.3034 14.7069 19.1483 15.0786C19.0575 15.3001 18.9389 15.5105 18.7915 15.705C18.7679 15.7366 18.7437 15.7678 18.7187 15.7986C18.9006 16.0175 19.0472 16.2609 19.1554 16.5197C19.2961 16.8534 19.375 17.219 19.375 17.6048C19.3841 18.0242 19.3018 18.4405 19.1338 18.8248L19.1256 18.8435C18.9844 19.1686 18.7821 19.4687 18.5158 19.7274C18.4791 19.7631 18.4415 19.7977 18.4029 19.8312C18.4699 20.0089 18.5185 20.198 18.5499 20.3973C18.5821 20.5909 18.5969 20.7876 18.5937 20.9846V20.9857C18.5937 21.7109 18.3356 22.4131 17.7916 22.9321C17.7264 22.9944 17.658 23.053 17.5867 23.1081C17.3309 23.3175 17.0391 23.4793 16.7251 23.5854C16.3728 23.7043 16.0002 23.7505 15.6297 23.7212L15.6015 23.7213H12.5879C12.5471 23.7213 12.5067 23.7205 12.4667 23.7189H9.72577C6.64061 23.7189 4.2867 22.947 2.73436 21.4181ZM10.0242 22.1564H10.2214C10.0622 21.7784 9.98778 21.3735 9.98778 20.9857C9.98778 20.5675 10.1334 19.9361 10.5129 19.3813C10.1029 18.7552 9.98778 18.0471 9.98778 17.6045C9.98778 17.1361 10.1543 16.4185 10.5894 15.7991C10.3369 15.4557 10.1686 15.0642 10.0758 14.6636C9.60457 16.1066 8.75502 17.6966 7.23415 19.012C6.9078 19.2942 6.41443 19.2585 6.13219 18.9321C5.84994 18.6058 5.88569 18.1124 6.21204 17.8301C7.84763 16.4156 8.56765 14.5988 8.87533 13.1003C9.02875 12.3532 9.07701 11.6965 9.08692 11.229C9.09186 10.9959 9.08723 10.8113 9.08164 10.6879C9.07885 10.6262 9.07582 10.58 9.07366 10.5507C9.07257 10.5361 9.07171 10.5257 9.07119 10.5198L9.07078 10.5152C9.02798 10.0861 9.34094 9.70343 9.77006 9.66031C9.86728 9.65054 9.96212 9.65904 10.0512 9.68302C10.1202 9.32372 10.2512 8.92131 10.4698 8.55033C10.6907 8.17554 11.0141 7.81754 11.4544 7.58386C11.5711 6.25434 11.5872 4.91767 11.5023 3.58527C11.1721 1.81447 10.096 1.81765 9.70475 1.81881L9.67733 1.81887C9.21217 1.81461 8.7627 1.98686 8.41952 2.3009C8.23501 2.50627 8.09388 2.74679 8.00461 3.00804C7.91533 3.26929 7.87975 3.54587 7.89999 3.82121C7.89999 6.43215 7.89999 7.22043 7.37967 8.05559C6.81385 8.85088 6.08183 9.51359 5.23436 9.99777L5.2291 10.0013C3.66853 11.0437 2.18749 12.0331 2.18749 15.6376C2.12644 16.4864 2.24058 17.3386 2.52282 18.1413C2.80505 18.9441 3.24935 19.6802 3.82811 20.304C5.12499 21.579 7.19999 22.1923 10.0242 22.1564ZM15.6023 22.1564C16.1405 22.1564 16.5427 22.0065 16.7812 21.7295C16.9382 21.5454 17.0312 21.2954 17.0312 20.9857C17.0312 20.79 17.0115 20.6358 16.9813 20.5137C16.7154 20.5687 16.4334 20.5967 16.1376 20.5967H12.8808C12.442 20.5967 12.0589 20.5193 11.7281 20.386C11.7031 20.432 11.6804 20.4798 11.6599 20.5288C11.5755 20.7309 11.5503 20.9065 11.5503 20.9857C11.5503 21.3081 11.6531 21.6146 11.8246 21.825C11.968 22.0011 12.1782 22.1367 12.5045 22.1564H15.6023ZM17.4154 16.684C17.0295 16.8173 16.6003 16.8858 16.1376 16.8858H12.7896C12.4466 16.8858 12.1308 16.8311 11.8447 16.7317C11.7771 16.8335 11.72 16.9447 11.674 17.0601C11.5804 17.2944 11.5503 17.5007 11.5503 17.6045C11.5503 17.8318 11.6196 18.2227 11.8238 18.5309C11.9979 18.7937 12.2877 19.0342 12.8808 19.0342H16.1376C16.5449 19.0342 16.8565 18.9566 17.0912 18.8406C17.3078 18.7319 17.4904 18.5651 17.6183 18.3582C17.6466 18.3123 17.672 18.2649 17.6944 18.2162C17.7706 18.0395 17.8125 17.8347 17.8125 17.6048C17.8049 17.3683 17.7369 17.1376 17.6149 16.9348L17.6059 16.9201C17.5523 16.8369 17.4886 16.7578 17.4154 16.684ZM17.6519 14.5884C17.6721 14.5513 17.6906 14.5134 17.7071 14.4747C17.7753 14.3051 17.8125 14.1107 17.8125 13.8939C17.8013 13.6237 17.7132 13.3626 17.559 13.141C17.4817 13.0352 17.3878 12.9371 17.2784 12.8499C16.81 13.1416 16.2409 13.297 15.6015 13.297H12.5879C12.2871 13.297 12.0134 13.2431 11.767 13.1502C11.7377 13.2043 11.711 13.2603 11.6869 13.3176C11.5837 13.5633 11.5503 13.7838 11.5503 13.8936C11.5503 14.2817 11.6716 14.6543 11.8788 14.9133C12.0696 15.1518 12.3527 15.3233 12.7896 15.3233H16.1376C16.6224 15.3233 16.9717 15.2132 17.2171 15.0596C17.3982 14.9408 17.5476 14.7791 17.6519 14.5884ZM12.5849 8.8751C12.2155 8.87603 11.9885 9.05082 11.8159 9.34366C11.6233 9.67049 11.5503 10.0804 11.5503 10.3048C11.5503 10.5993 11.6566 10.9967 11.866 11.3024C12.0642 11.5919 12.3019 11.7345 12.5879 11.7345H15.6015C16.1407 11.7345 16.4751 11.5566 16.6792 11.3363L16.6876 11.3272C16.788 11.2071 16.8679 11.0729 16.9254 10.9299C16.9928 10.7513 17.0312 10.5419 17.0312 10.3048C17.031 10.0765 16.9762 9.85382 16.8741 9.65427C16.7378 9.3892 16.521 9.17176 16.2565 9.03457C16.0558 8.93098 15.8316 8.87537 15.6015 8.87512H12.5875L12.5849 8.8751Z" fill="#212121"/>
</svg>
