<svg width="26" height="26" viewBox="0 0 26 26" fill="none" xmlns="http://www.w3.org/2000/svg">
<path d="M6.35008 21.7832C5.68452 21.0662 5.16985 20.2186 4.8376 19.2922C4.50535 18.3657 4.36252 17.3801 4.41787 16.3955C4.41787 12.2522 6.31639 10.9639 7.84196 9.92872L7.8429 9.92809C8.44703 9.58661 8.97429 9.12038 9.39082 8.55932C9.61911 8.18583 9.6506 7.79995 9.6506 5.3835C9.62842 4.93318 9.69718 4.483 9.85264 4.06076C10.0081 3.63852 10.2469 3.25316 10.5544 2.92846C11.1487 2.36189 11.9357 2.05162 12.75 2.06279C14.3466 2.06279 15.4587 3.09592 15.7893 4.90225C15.9108 6.14457 15.9077 7.39625 15.78 8.63793H18.1366C19.6482 8.63793 20.8775 9.88856 20.8775 11.4264C20.8792 11.6342 20.8601 11.841 20.8207 12.0436C20.7777 12.2713 20.7096 12.4928 20.615 12.7024C21.203 13.2025 21.5931 13.9326 21.5931 14.771L21.5931 14.7756C21.599 15.1547 21.5275 15.5289 21.3855 15.8753C21.3023 16.0817 21.1936 16.2778 21.0586 16.459C21.037 16.4884 21.0148 16.5175 20.992 16.5462C21.1586 16.7503 21.2929 16.977 21.3919 17.2183C21.5209 17.5293 21.5931 17.8699 21.5931 18.2295C21.6014 18.6203 21.5261 19.0083 21.3722 19.3665L21.3646 19.3839C21.2353 19.6868 21.0501 19.9665 20.8061 20.2076C20.7725 20.2408 20.738 20.2731 20.7027 20.3044C20.7641 20.47 20.8086 20.6462 20.8374 20.8319C20.8669 21.0123 20.8804 21.1956 20.8775 21.3792V21.3802C20.8775 22.056 20.6411 22.7105 20.1427 23.1942C20.083 23.2522 20.0204 23.3068 19.9551 23.3581C19.7208 23.5533 19.4534 23.7041 19.1658 23.8029C18.8431 23.9138 18.5018 23.9568 18.1624 23.9295L18.1366 23.9296H15.376C15.3387 23.9296 15.3017 23.9289 15.2651 23.9273H12.7543C9.92826 23.9273 7.77205 23.208 6.35008 21.7832ZM13.0277 22.4712H13.2083C13.0625 22.119 12.9943 21.7416 12.9943 21.3802C12.9943 20.9905 13.1277 20.4021 13.4754 19.885C13.0997 19.3016 12.9943 18.6417 12.9943 18.2293C12.9943 17.7927 13.1468 17.124 13.5454 16.5467C13.3141 16.2267 13.16 15.8618 13.0749 15.4885C12.6433 16.8333 11.8651 18.315 10.472 19.5409C10.173 19.8039 9.72108 19.7706 9.46254 19.4664C9.204 19.1623 9.23674 18.7025 9.53568 18.4395C11.0339 17.1212 11.6935 15.4281 11.9753 14.0317C12.1158 13.3354 12.16 12.7234 12.1691 12.2878C12.1736 12.0704 12.1694 11.8984 12.1643 11.7834C12.1617 11.726 12.159 11.6829 12.157 11.6556C12.156 11.642 12.1552 11.6323 12.1547 11.6268L12.1543 11.6225C12.1151 11.2227 12.4018 10.866 12.7949 10.8258C12.8839 10.8167 12.9708 10.8246 13.0524 10.847C13.1157 10.5122 13.2356 10.1371 13.4359 9.79141C13.6382 9.44213 13.9344 9.1085 14.3378 8.89073C14.4447 7.65172 14.4594 6.40604 14.3817 5.16435C14.0792 3.51409 13.0934 3.51706 12.7351 3.51814L12.7099 3.5182C12.2838 3.51423 11.8721 3.67476 11.5578 3.96741C11.3888 4.1588 11.2595 4.38295 11.1777 4.62641C11.0959 4.86988 11.0633 5.12764 11.0819 5.38423C11.0819 7.81742 11.0819 8.55204 10.6053 9.33035C10.087 10.0715 9.41641 10.6891 8.64012 11.1403L8.6353 11.1436C7.20579 12.1151 5.84914 13.0371 5.84914 16.3962C5.79322 17.1872 5.89778 17.9814 6.15631 18.7295C6.41484 19.4776 6.82182 20.1636 7.35197 20.745C8.53993 21.9332 10.4407 22.5047 13.0277 22.4712ZM18.1373 22.4712C18.6303 22.4712 18.9987 22.3315 19.2172 22.0734C19.361 21.9018 19.4462 21.6688 19.4462 21.3802C19.4462 21.1979 19.4281 21.0541 19.4004 20.9404C19.157 20.9917 18.8986 21.0177 18.6276 21.0177H15.6444C15.2424 21.0177 14.8915 20.9456 14.5885 20.8214C14.5656 20.8643 14.5447 20.9088 14.526 20.9544C14.4487 21.1428 14.4256 21.3064 14.4256 21.3802C14.4256 21.6807 14.5198 21.9663 14.6768 22.1624C14.8082 22.3265 15.0008 22.4529 15.2997 22.4712H18.1373ZM19.7981 17.3714C19.4447 17.4956 19.0515 17.5595 18.6276 17.5595H15.5608C15.2467 17.5595 14.9574 17.5085 14.6953 17.4158C14.6334 17.5107 14.5811 17.6143 14.5389 17.7219C14.4531 17.9403 14.4256 18.1324 14.4256 18.2293C14.4256 18.4411 14.4891 18.8053 14.6761 19.0925C14.8356 19.3374 15.1011 19.5616 15.6444 19.5616H18.6276C19.0007 19.5616 19.2861 19.4892 19.5011 19.3812C19.6995 19.2799 19.8668 19.1244 19.9839 18.9316C20.0099 18.8888 20.0332 18.8446 20.0537 18.7993C20.1235 18.6346 20.1618 18.4438 20.1619 18.2295C20.1549 18.009 20.0926 17.7941 19.9809 17.6051L19.9727 17.5914C19.9235 17.5139 19.8652 17.4401 19.7981 17.3714ZM20.0147 15.4185C20.0333 15.3839 20.0502 15.3485 20.0654 15.3125C20.1278 15.1544 20.1618 14.9732 20.1619 14.7712C20.1516 14.5194 20.0709 14.2761 19.9296 14.0695C19.8589 13.9709 19.7728 13.8795 19.6726 13.7983C19.2436 14.0701 18.7223 14.2149 18.1366 14.2149H15.376C15.1005 14.2149 14.8498 14.1647 14.6241 14.0781C14.5973 14.1285 14.5728 14.1807 14.5507 14.2342C14.4562 14.4631 14.4256 14.6686 14.4256 14.771C14.4256 15.1326 14.5367 15.4798 14.7265 15.7212C14.9013 15.9434 15.1606 16.1033 15.5608 16.1033H18.6276C19.0718 16.1033 19.3917 16.0007 19.6165 15.8576C19.7823 15.7469 19.9192 15.5962 20.0147 15.4185ZM15.3733 10.0941C15.035 10.0949 14.827 10.2578 14.6689 10.5307C14.4925 10.8353 14.4256 11.2174 14.4256 11.4264C14.4256 11.7008 14.523 12.0713 14.7148 12.3562C14.8964 12.6259 15.1141 12.7588 15.376 12.7588H18.1366C18.6305 12.7588 18.9368 12.593 19.1238 12.3877L19.1314 12.3792C19.2234 12.2673 19.2966 12.1422 19.3493 12.009C19.411 11.8425 19.4462 11.6474 19.4462 11.4264C19.446 11.2136 19.3958 11.0062 19.3022 10.8202C19.1774 10.5732 18.9789 10.3705 18.7366 10.2427C18.5527 10.1462 18.3473 10.0943 18.1366 10.0941H15.3757L15.3733 10.0941Z" fill="#212121"/>
</svg>
