<svg width="26" height="26" viewBox="0 0 26 26" fill="none" xmlns="http://www.w3.org/2000/svg">
<path d="M19.6499 4.21682C20.3155 4.93377 20.8302 5.78142 21.1624 6.70784C21.4946 7.63427 21.6375 8.61995 21.5821 9.6045C21.5821 13.7478 19.6836 15.0361 18.158 16.0713L18.1571 16.0719C17.553 16.4134 17.0257 16.8796 16.6092 17.4407C16.3809 17.8142 16.3494 18.2 16.3494 20.6165C16.3716 21.0668 16.3028 21.517 16.1474 21.9392C15.9919 22.3615 15.7531 22.7468 15.4456 23.0715C14.8513 23.6381 14.0643 23.9484 13.25 23.9372C11.6534 23.9372 10.5413 22.9041 10.2107 21.0978C10.0892 19.8554 10.0923 18.6037 10.22 17.3621H7.86339C6.35177 17.3621 5.12251 16.1114 5.12251 14.5736C5.12078 14.3658 5.13992 14.159 5.17927 13.9564C5.22234 13.7287 5.2904 13.5072 5.38504 13.2976C4.797 12.7975 4.40687 12.0674 4.40687 11.229L4.40687 11.2244C4.40102 10.8453 4.47248 10.4711 4.61449 10.1247C4.69769 9.91834 4.80637 9.72221 4.94136 9.54103C4.96296 9.51155 4.98517 9.48247 5.008 9.45379C4.84138 9.24972 4.70709 9.02296 4.60805 8.7817C4.47909 8.47075 4.40687 8.13008 4.40687 7.77051C4.39856 7.3797 4.47395 6.99173 4.6278 6.63354L4.63536 6.61613C4.76466 6.31319 4.94993 6.03354 5.19388 5.79241C5.22751 5.75918 5.262 5.72692 5.29733 5.69565C5.23594 5.53004 5.19139 5.35383 5.16263 5.16809C5.13312 4.98766 5.11963 4.80439 5.12251 4.62076V4.61976C5.12251 3.94397 5.35892 3.28955 5.85728 2.80583C5.91703 2.74783 5.97963 2.69317 6.04493 2.64187C6.27924 2.44669 6.54656 2.29589 6.83419 2.19708C7.15688 2.08622 7.49824 2.04318 7.83759 2.07045L7.86339 2.07037H10.624C10.6613 2.07037 10.6983 2.07114 10.7349 2.07266H13.2457C16.0717 2.07266 18.2279 2.79199 19.6499 4.21682ZM12.9723 3.52879H12.7917C12.9375 3.88103 13.0057 4.2584 13.0057 4.61976C13.0057 5.00952 12.8723 5.59791 12.5246 6.11497C12.9003 6.6984 13.0057 7.35827 13.0057 7.77074C13.0057 8.2073 12.8532 8.87604 12.4546 9.45329C12.6859 9.77327 12.84 10.1382 12.9251 10.5115C13.3567 9.16674 14.1349 7.68495 15.528 6.45915C15.827 6.19611 16.2789 6.22943 16.5375 6.53356C16.796 6.8377 16.7633 7.29748 16.4643 7.56051C14.9661 8.87878 14.3065 10.5719 14.0247 11.9683C13.8842 12.6646 13.84 13.2766 13.8309 13.7122C13.8264 13.9296 13.8306 14.1016 13.8357 14.2166C13.8383 14.274 13.841 14.3171 13.843 14.3444C13.844 14.358 13.8448 14.3677 13.8453 14.3732L13.8457 14.3775C13.8849 14.7773 13.5982 15.134 13.2051 15.1742C13.1161 15.1833 13.0292 15.1754 12.9476 15.153C12.8843 15.4878 12.7644 15.8629 12.5641 16.2086C12.3618 16.5579 12.0656 16.8915 11.6622 17.1093C11.5553 18.3483 11.5406 19.594 11.6183 20.8356C11.9208 22.4859 12.9066 22.4829 13.2649 22.4819L13.2901 22.4818C13.7162 22.4858 14.1279 22.3252 14.4422 22.0326C14.6112 21.8412 14.7405 21.617 14.8223 21.3736C14.9041 21.1301 14.9367 20.8724 14.9181 20.6158C14.9181 18.1826 14.9181 17.448 15.3947 16.6697C15.913 15.9285 16.5836 15.3109 17.3599 14.8597L17.3647 14.8564C18.7942 13.8849 20.1509 12.9629 20.1509 9.60377C20.2068 8.81282 20.1022 8.01861 19.8437 7.2705C19.5852 6.52239 19.1782 5.83636 18.648 5.25504C17.4601 4.06683 15.5593 3.4953 12.9723 3.52879ZM7.86268 3.52879C7.36974 3.52879 7.00132 3.66849 6.78283 3.92656C6.63901 4.09821 6.55378 4.33117 6.55378 4.61976C6.55378 4.8021 6.57188 4.94586 6.59956 5.0596C6.84304 5.00834 7.10145 4.98225 7.3724 4.98225H10.3556C10.7576 4.98225 11.1085 5.05438 11.4115 5.17865C11.4344 5.13573 11.4553 5.09122 11.474 5.04558C11.5513 4.85723 11.5744 4.69356 11.5744 4.61976C11.5744 4.31934 11.4802 4.03366 11.3232 3.8376C11.1918 3.67351 10.9992 3.54713 10.7003 3.52879H7.86268ZM6.20191 8.62858C6.55533 8.5044 6.9485 8.44055 7.3724 8.44055H10.4392C10.7533 8.44055 11.0426 8.49154 11.3047 8.58418C11.3666 8.48926 11.4189 8.38566 11.4611 8.27814C11.5469 8.05974 11.5744 7.86756 11.5744 7.77074C11.5744 7.55893 11.5109 7.19467 11.3239 6.9075C11.1644 6.66257 10.8989 6.43838 10.3556 6.43838H7.3724C6.99931 6.43838 6.71386 6.51076 6.49885 6.61879C6.30046 6.7201 6.13317 6.87559 6.01605 7.06838C5.99006 7.11116 5.96679 7.15537 5.94631 7.20074C5.8765 7.36536 5.83817 7.55624 5.83814 7.77051C5.84507 7.99095 5.90738 8.20592 6.01912 8.39493L6.02733 8.40862C6.0765 8.48614 6.13485 8.55986 6.20191 8.62858ZM5.98528 10.5815C5.9667 10.6161 5.94981 10.6515 5.93464 10.6875C5.87224 10.8456 5.83817 11.0268 5.83814 11.2288C5.84842 11.4806 5.92906 11.7239 6.07038 11.9305C6.14111 12.0291 6.22716 12.1205 6.3274 12.2017C6.75642 11.9299 7.27773 11.7851 7.86339 11.7851H10.624C10.8995 11.7851 11.1502 11.8353 11.3759 11.9219C11.4027 11.8715 11.4272 11.8193 11.4493 11.7658C11.5438 11.5369 11.5744 11.3314 11.5744 11.229C11.5744 10.8674 11.4633 10.5202 11.2735 10.2788C11.0987 10.0566 10.8394 9.89668 10.4392 9.89668H7.3724C6.92825 9.89668 6.6083 9.99926 6.38354 10.1424C6.21768 10.2531 6.08077 10.4038 5.98528 10.5815ZM10.6267 15.9059C10.965 15.9051 11.173 15.7422 11.3311 15.4693C11.5075 15.1647 11.5744 14.7826 11.5744 14.5736C11.5744 14.2992 11.477 13.9287 11.2852 13.6438C11.1036 13.3741 10.8859 13.2412 10.624 13.2412H7.86339C7.3695 13.2412 7.06318 13.407 6.87622 13.6123L6.86855 13.6208C6.77663 13.7327 6.70343 13.8578 6.65069 13.991C6.58897 14.1575 6.55378 14.3526 6.55378 14.5736C6.55401 14.7864 6.60421 14.9938 6.69776 15.1798C6.8226 15.4268 7.02112 15.6295 7.26344 15.7573C7.44726 15.8538 7.65269 15.9057 7.86339 15.9059H10.6243L10.6267 15.9059Z" fill="#212121"/>
</svg>
