<svg width="18" height="24" viewBox="0 0 18 24" fill="none" xmlns="http://www.w3.org/2000/svg">
<path d="M15.6499 2.58944C16.3155 3.35761 16.8302 4.26581 17.1624 5.2584C17.4946 6.251 17.6375 7.30709 17.5821 8.36197C17.5821 12.8012 15.6836 14.1815 14.158 15.2907L14.1571 15.2913C13.553 15.6572 13.0257 16.1567 12.6092 16.7579C12.3809 17.158 12.3494 17.5715 12.3494 20.1605C12.3716 20.643 12.3028 21.1254 12.1474 21.5778C11.9919 22.0302 11.7531 22.443 11.4456 22.7909C10.8513 23.398 10.0643 23.7304 9.24998 23.7184C7.6534 23.7184 6.5413 22.6115 6.21068 20.6762C6.08918 19.3451 6.0923 18.004 6.21998 16.6736H3.86339C2.35177 16.6736 1.12251 15.3337 1.12251 13.6859C1.12078 13.4634 1.13992 13.2418 1.17928 13.0247C1.22234 12.7807 1.2904 12.5434 1.38504 12.3188C0.796999 11.783 0.40687 11.0008 0.40687 10.1025L0.406872 10.0976C0.401022 9.69142 0.472485 9.29046 0.614489 8.91934C0.697691 8.69823 0.806372 8.48808 0.941364 8.29396C0.962959 8.26238 0.985174 8.23122 1.008 8.20049C0.841381 7.98185 0.70709 7.73889 0.608053 7.48039C0.479094 7.14723 0.40687 6.78223 0.40687 6.39697C0.39856 5.97825 0.473949 5.56257 0.627804 5.1788L0.635355 5.16014C0.764664 4.83556 0.949932 4.53593 1.19388 4.27759C1.22751 4.24198 1.262 4.20741 1.29733 4.17391C1.23594 3.99647 1.19139 3.80768 1.16263 3.60867C1.13312 3.41535 1.11963 3.21899 1.12251 3.02224V3.02118C1.12251 2.29711 1.35892 1.59594 1.85728 1.07767C1.91703 1.01553 1.97963 0.956963 2.04493 0.902005C2.27924 0.692883 2.54656 0.531306 2.83419 0.425438C3.15688 0.306665 3.49824 0.26055 3.83759 0.28977L3.86339 0.289679H6.62396C6.66132 0.289679 6.69832 0.290505 6.73494 0.292137H9.24569C12.0717 0.292137 14.2279 1.06285 15.6499 2.58944ZM8.97232 1.85228H8.79166C8.93754 2.22967 9.00568 2.634 9.00568 3.02118C9.00568 3.43877 8.87229 4.06919 8.52462 4.62319C8.90025 5.24828 9.00568 5.95529 9.00568 6.39723C9.00568 6.86496 8.85318 7.58148 8.45456 8.19996C8.68591 8.54278 8.84003 8.93375 8.92508 9.33371C9.35671 7.89293 10.1349 6.30531 11.528 4.99194C11.827 4.71012 12.2789 4.74582 12.5375 5.07168C12.796 5.39753 12.7633 5.89015 12.4643 6.17198C10.9661 7.5844 10.3065 9.39846 10.0247 10.8946C9.88417 11.6407 9.83996 12.2964 9.83088 12.7631C9.82636 12.9959 9.8306 13.1803 9.83572 13.3035C9.83828 13.365 9.84105 13.4112 9.84303 13.4404C9.84402 13.455 9.84482 13.4653 9.84529 13.4712L9.84567 13.4759C9.88488 13.9043 9.5982 14.2864 9.20512 14.3295C9.11607 14.3392 9.02919 14.3307 8.94761 14.3068C8.88434 14.6656 8.76441 15.0674 8.56414 15.4378C8.3618 15.812 8.06556 16.1695 7.66219 16.4028C7.55531 17.7303 7.54061 19.065 7.61833 20.3953C7.92082 22.1635 8.90658 22.1603 9.26494 22.1591L9.29006 22.1591C9.71615 22.1633 10.1279 21.9913 10.4422 21.6778C10.6112 21.4727 10.7405 21.2326 10.8223 20.9717C10.9041 20.7108 10.9367 20.4347 10.9181 20.1598C10.9181 17.5528 10.9181 16.7657 11.3947 15.9318C11.913 15.1377 12.5836 14.476 13.3599 13.9925L13.3647 13.989C14.7942 12.9481 16.1509 11.9603 16.1509 8.36119C16.2068 7.51373 16.1022 6.6628 15.8437 5.86125C15.5852 5.05971 15.1782 4.32468 14.648 3.70183C13.4601 2.42875 11.5593 1.8164 8.97232 1.85228ZM3.86268 1.85228C3.36974 1.85228 3.00132 2.00195 2.78283 2.27845C2.63901 2.46236 2.55378 2.71197 2.55378 3.02118C2.55378 3.21654 2.57188 3.37057 2.59956 3.49243C2.84304 3.43751 3.10145 3.40955 3.3724 3.40955H6.35559C6.75757 3.40955 7.10848 3.48683 7.41149 3.61998C7.4344 3.574 7.45526 3.52631 7.47399 3.47741C7.5513 3.27561 7.57441 3.10024 7.57441 3.02118C7.57441 2.6993 7.4802 2.39321 7.32317 2.18314C7.19175 2.00733 6.99921 1.87193 6.70029 1.85228H3.86268ZM2.20191 7.31633C2.55533 7.18329 2.9485 7.11487 3.3724 7.11487H6.43916C6.75333 7.11487 7.04264 7.1695 7.30469 7.26876C7.36662 7.16707 7.41891 7.05606 7.46112 6.94086C7.54685 6.70686 7.57441 6.50095 7.57441 6.39722C7.57441 6.17028 7.51089 5.78 7.32388 5.47232C7.16438 5.2099 6.8989 4.9697 6.35559 4.9697H3.3724C2.99931 4.9697 2.71386 5.04725 2.49885 5.16299C2.30046 5.27153 2.13317 5.43813 2.01605 5.64469C1.99006 5.69053 1.96679 5.7379 1.94631 5.78651C1.8765 5.96288 1.83817 6.1674 1.83814 6.39697C1.84507 6.63316 1.90738 6.86349 2.01912 7.066L2.02733 7.08067C2.0765 7.16372 2.13485 7.24271 2.20191 7.31633ZM1.98528 9.4088C1.9667 9.44585 1.94981 9.48374 1.93464 9.52235C1.87224 9.69167 1.83817 9.88585 1.83814 10.1023C1.84842 10.372 1.92906 10.6328 2.07038 10.8541C2.14111 10.9597 2.22716 11.0577 2.3274 11.1447C2.75642 10.8535 3.27773 10.6983 3.86339 10.6983H6.62396C6.89951 10.6983 7.15019 10.7521 7.37587 10.8449C7.40274 10.7909 7.42723 10.7349 7.44928 10.6777C7.54377 10.4324 7.57441 10.2122 7.57441 10.1025C7.57441 9.7151 7.4633 9.34303 7.27347 9.08443C7.09869 8.84632 6.83938 8.67501 6.43916 8.67501H3.3724C2.92825 8.67501 2.6083 8.78492 2.38354 8.93833C2.21768 9.05695 2.08077 9.2184 1.98528 9.4088ZM6.62667 15.1135C6.96505 15.1126 7.17298 14.938 7.33107 14.6456C7.50751 14.3193 7.57441 13.91 7.57441 13.686C7.57441 13.3919 7.47698 12.9951 7.2852 12.6898C7.10364 12.4008 6.88592 12.2584 6.62396 12.2584H3.86339C3.3695 12.2584 3.06318 12.436 2.87622 12.656L2.86855 12.6651C2.77663 12.785 2.70343 12.919 2.65069 13.0618C2.58897 13.2401 2.55378 13.4492 2.55378 13.686C2.55401 13.914 2.60421 14.1363 2.69776 14.3355C2.8226 14.6002 3.02112 14.8173 3.26344 14.9543C3.44726 15.0577 3.65269 15.1132 3.86339 15.1135H6.62432L6.62667 15.1135Z" fill="#212121"/>
</svg>
