<svg width="25" height="25" viewBox="0 0 25 25" fill="none" xmlns="http://www.w3.org/2000/svg">
<g clip-path="url(#clip0_218_4480)">
<path d="M10.8083 12.2528H3.47493C3.12131 12.2528 2.78217 12.1123 2.53213 11.8622C2.28208 11.6122 2.1416 11.2731 2.1416 10.9194V6.25277C2.1416 5.89914 2.28208 5.56001 2.53213 5.30996C2.78217 5.05991 3.12131 4.91943 3.47493 4.91943H10.8083C11.1619 4.91943 11.501 5.05991 11.7511 5.30996C12.0011 5.56001 12.1416 5.89914 12.1416 6.25277V10.9194C12.1416 11.2731 12.0011 11.6122 11.7511 11.8622C11.501 12.1123 11.1619 12.2528 10.8083 12.2528ZM3.47493 6.25277V10.9194H10.8083V6.25277H3.47493Z" fill="black"/>
<path d="M22.1413 12.2528H14.8079C14.4543 12.2528 14.1152 12.1123 13.8651 11.8622C13.6151 11.6122 13.4746 11.2731 13.4746 10.9194V6.25277C13.4746 5.89914 13.6151 5.56001 13.8651 5.30996C14.1152 5.05991 14.4543 4.91943 14.8079 4.91943H22.1413C22.4949 4.91943 22.834 5.05991 23.0841 5.30996C23.3341 5.56001 23.4746 5.89914 23.4746 6.25277V10.9194C23.4746 11.2731 23.3341 11.6122 23.0841 11.8622C22.834 12.1123 22.4949 12.2528 22.1413 12.2528ZM14.8079 6.25277V10.9194H22.1413V6.25277H14.8079Z" fill="black"/>
<path d="M10.8083 20.9193H3.47493C3.12131 20.9193 2.78217 20.7788 2.53213 20.5287C2.28208 20.2787 2.1416 19.9396 2.1416 19.5859V14.9193C2.1416 14.5656 2.28208 14.2265 2.53213 13.9765C2.78217 13.7264 3.12131 13.5859 3.47493 13.5859H10.8083C11.1619 13.5859 11.501 13.7264 11.7511 13.9765C12.0011 14.2265 12.1416 14.5656 12.1416 14.9193V19.5859C12.1416 19.9396 12.0011 20.2787 11.7511 20.5287C11.501 20.7788 11.1619 20.9193 10.8083 20.9193ZM3.47493 14.9193V19.5859H10.8083V14.9193H3.47493Z" fill="black"/>
<path d="M22.1413 20.9193H14.8079C14.4543 20.9193 14.1152 20.7788 13.8651 20.5287C13.6151 20.2787 13.4746 19.9396 13.4746 19.5859V14.9193C13.4746 14.5656 13.6151 14.2265 13.8651 13.9765C14.1152 13.7264 14.4543 13.5859 14.8079 13.5859H22.1413C22.4949 13.5859 22.834 13.7264 23.0841 13.9765C23.3341 14.2265 23.4746 14.5656 23.4746 14.9193V19.5859C23.4746 19.9396 23.3341 20.2787 23.0841 20.5287C22.834 20.7788 22.4949 20.9193 22.1413 20.9193ZM14.8079 14.9193V19.5859H22.1413V14.9193H14.8079Z" fill="black"/>
</g>
<defs>
<clipPath id="clip0_218_4480">
<rect width="24" height="24" fill="white" transform="translate(0.808105 0.919434)"/>
</clipPath>
</defs>
</svg>
